<?xml version="1.0" standalone="no"?>
<!DOCTYPE svg PUBLIC "-//W3C//DTD SVG 1.1//EN" "http://www.w3.org/Graphics/SVG/1.1/DTD/svg11.dtd" >
<svg>
<metadata>
Created by FontForge 20090914 at Wed Jul 20 06:22:24 2016
 By www-data
Copyright 1992 by Mike Allard for De Nada Industries...Generated by Fontographer 3.5
</metadata>
<defs>
<font id="LaurenScript" horiz-adv-x="500" >
  <font-face 
    font-family="LaurenScript"
    font-weight="5"
    font-stretch="normal"
    units-per-em="1000"
    panose-1="0 0 0 0 0 0 0 0 0 0"
    ascent="800"
    descent="-200"
    x-height="454.001"
    cap-height="1000"
    bbox="-96 -402.001 1757 1118"
    underline-thickness="20"
    underline-position="-123"
    unicode-range="U+0020-U+201D"
  />
<missing-glyph horiz-adv-x="800" 
d="M50 0v800h700v-800h-700zM700 50v700h-600v-700h600z" />
    <glyph glyph-name=".notdef" horiz-adv-x="800" 
d="M50 0v800h700v-800h-700zM700 50v700h-600v-700h600z" />
    <glyph glyph-name="space" unicode=" " 
 />
    <glyph glyph-name="exclam" unicode="!" horiz-adv-x="282" 
d="M235 1074c-1.33301 -3.33301 -3.5 -80.667 -6.5 -232s-10.167 -274.666 -21.5 -369.999c-16.667 -140.667 -43.667 -221.667 -81 -243v52c5.33301 12 9.33301 32.5 12 61.5s4 60.833 4 95.5c0 48 -0.333008 85 -1 111c-3.33301 131.333 -5 199.666 -5 204.999
c0 98 4 172.667 12 224c10.667 69.333 29.667 116 57 140h30v-44zM125 70.999c0 -13.333 -6.66602 -24.666 -19.999 -33.999c-10 -7.33301 -18.333 -11 -25 -11c-11.333 0 -21.5 4.16699 -30.5 12.5s-13.5 17.5 -13.5 27.5c0 11.333 4.83301 22.166 14.5 32.499
s21.5 15.5 35.5 15.5c13.333 0 23.166 -2.83301 29.499 -8.5s9.5 -17.167 9.5 -34.5z" />
    <glyph glyph-name="quotedbl" unicode="&#x22;" horiz-adv-x="372" 
d="M160 921c4 -16 5.99609 -31.333 5.99609 -46c0 -32 -11.667 -72 -35 -120l-39 -80l-36 -10l-6 22c14.667 20 26.334 38.333 35.001 55c14.667 28.667 22 54.667 22 78c0 7.33301 -1.16699 15.5 -3.5 24.5s-16.166 20.5 -41.499 34.5s-40.666 31.333 -45.999 52
c-2 8 -3 15.667 -3 23c0 14.667 4.5 26 13.5 34s22.5 14.333 40.5 19c6.66699 1.33301 11.334 2 14.001 2c17.333 0 33 -8 47 -24s24.667 -37.333 32 -64zM343.996 921c4 -16 5.99609 -31.333 5.99609 -46c0 -32 -11.667 -72 -35 -120l-39 -80l-36 -10l-6 22
c14.667 20 26.334 38.333 35.001 55c14.667 28.667 22 54.667 22 78c0 7.33301 -1.16699 15.5 -3.5 24.5s-16.166 20.5 -41.499 34.5s-40.666 31.333 -45.999 52c-2 8 -3 15.667 -3 23c0 14.667 4.5 26 13.5 34s22.5 14.333 40.5 19c6.66699 1.33301 11.334 2 14.001 2
c17.333 0 33 -8 47 -24s24.667 -37.333 32 -64z" />
    <glyph glyph-name="numbersign" unicode="#" 
 />
    <glyph glyph-name="dollar" unicode="$" 
 />
    <glyph glyph-name="percent" unicode="%" 
 />
    <glyph glyph-name="ampersand" unicode="&#x26;" horiz-adv-x="708" 
d="M515 -124l-20.999 8.00293c-14.667 6 -27.667 27.5 -39 64.5s-21.333 57 -30 60s-17 4.5 -25 4.5c-5.33301 0 -14.666 -1 -27.999 -3s-25.333 -3 -36 -3c-16 0 -29.833 1.16699 -41.5 3.5s-29.5 7.5 -53.5 15.5c-64 23.333 -118 62 -162 116c-46 56.667 -69 117 -69 181
c0 16 1.16699 30.667 3.5 44s6.16602 27.333 11.499 42c17.333 48 45.666 88.833 84.999 122.5l120 100.5c1.33301 3.33301 2 10.666 2 21.999c0 9.33301 -1.66699 33.333 -5 72s-5 69.667 -5 93c0 38.667 4 69.667 12 93c10.667 29.333 26 50.833 46 64.5
s41.667 20.5 65 20.5c10 0 20.667 -1.66699 32 -5c24 -9.33301 44.667 -29.333 62 -60s26 -63.334 26 -98.001c0 -20 -3.66699 -40 -11 -60l-24 -67c-9.33301 -26.667 -33.333 -62.667 -72 -108c-12.667 -14.667 -31 -34.667 -55 -60
c-2.66699 -6.66699 5.33301 -44.834 24 -114.501s39 -136.167 61 -199.5c26.667 -77.333 49.667 -128.333 69 -153c17.333 8 33 17.667 47 29c17.333 14 29 27 35 39c6 17.333 9 33.666 9 48.999c0 38 -15.667 76.667 -47 116c-70 62.667 -107.667 97.334 -113 104.001
c15.333 16 33.333 24 54 24c14.667 0 31.667 -4 51 -12c39.333 -14 69 -37.667 89 -71c18 -30 27 -65 27 -105c0 -15.333 -1.33301 -30.333 -4 -45s-6.66699 -30 -12 -46c-11.333 -30 -33.333 -61 -66 -93c-10.667 -10.667 -26.667 -24 -48 -40
c-4 -9.33301 1 -29.333 15 -60c12 -26 23 -44.667 33 -56zM380.001 751.003l37.999 102.997c-4.66699 4 -9.16699 17 -13.5 39s-14.5 36 -30.5 42c-4 1.33301 -8 2 -12 2c-11.333 0 -23.166 -3.66699 -35.499 -11s-21.166 -17.666 -26.499 -30.999l-23 -65
c-2.66699 -7.33301 -4.66699 -16 -6 -26s-2 -19.667 -2 -29c0 -16 1.16699 -31.667 3.5 -47s5.16602 -31.666 8.49902 -48.999c21.333 0 38.833 11.333 52.5 34s29.167 35.334 46.5 38.001zM400 59c-5.33301 12 -19.667 54.001 -43 126.001l-63 198
c-22 69.333 -33 104.333 -33 105c-34 -38.667 -52 -59.334 -54 -62.001c-22.667 -28 -37 -50.667 -43 -68l-20 -57c-6 -16 -9 -32.667 -9 -50c0 -39.333 13.167 -76.833 39.5 -112.5s58.5 -60.167 96.5 -73.5c21.333 -8 44.333 -12 69 -12c18 0 38 2 60 6z" />
    <glyph glyph-name="quotesingle" unicode="'" horiz-adv-x="192" 
d="M190 662c0 -30 -7.99902 -59.334 -23.999 -88.001c-2.66699 -5.33301 -37.667 -49.333 -105 -132h-38v22c32 26.667 55.333 51.167 70 73.5s22 43.5 22 63.5c0 10.667 -10.333 26 -31 46s-31 40.667 -31 62c0 22.667 6.16699 38.334 18.5 47.001s29.166 13 50.499 13
c20.667 0 37.167 -9.83301 49.5 -29.5s18.5 -45.5 18.5 -77.5z" />
    <glyph glyph-name="parenleft" unicode="(" horiz-adv-x="312" 
d="M315 1014c6.66699 0 10.001 -2.99805 10.001 -8.99805c0 -12 -21.667 -47.333 -65 -106c-58.667 -79.333 -99.334 -137.666 -122.001 -174.999c-44 -72.667 -66 -130.334 -66 -173.001c0 -45.333 13.333 -113 40 -203c18 -60 43.333 -133.667 76 -221l44 -117
c3.33301 -14.667 5 -24.334 5 -29.001l-60 68c-42.667 73.333 -80.334 153.666 -113.001 240.999c-40.667 107.333 -61 193 -61 257c0 86.667 26.333 168.667 79 246c36.667 53.333 86.334 105 149.001 155z" />
    <glyph glyph-name="parenright" unicode=")" horiz-adv-x="679" 
d="M309 547c0 -60 -17.333 -138.666 -52 -235.999c-28 -79.333 -62.333 -156.666 -103 -231.999c-38 -70.667 -62.667 -106 -74 -106c-2.66699 0 -4 3 -4 9c0 4 0.5 8.66699 1.5 14s1.83301 10 2.5 14l44 116c32.667 87.333 58 161 76 221c26.667 90 40 158 40 204
c0 43.333 -21.667 100.666 -65 171.999c-22.667 37.333 -63.334 95.666 -122.001 174.999c-44 59.333 -66 95 -66 107c0 6 3.33301 9 10 9l83 -65c62.667 -49.333 112.334 -101 149.001 -155c53.333 -78 80 -160.333 80 -247z" />
    <glyph glyph-name="asterisk" unicode="*" horiz-adv-x="1808" 
d="M1281 866h-303v102h303v-102zM338 560l-50 -120h14l4 9v-9l-39 -78l-7 6v12l70 201h8v-21zM905 767c0 -46 -12.998 -85.998 -38.998 -119.998c-32 -42 -79 -67 -141 -75c-42 -6 -64.667 -10.667 -68 -14c-18.667 -18.667 -43 -80 -73 -184h64
c0 24 6.16699 50.667 18.5 80s22.833 45.666 31.5 48.999l-39 -96v-15c16 0 38.667 18 68 54s46.666 54 51.999 54c-12.667 -21.333 -21.334 -38.666 -26.001 -51.999c-6.66699 -18 -10 -37.667 -10 -59h-14v30h-7l-63 -51l144 -390v-10h-402l96 253h102v6l-50 141l35 3
c-0.666992 0.666992 -2.66699 2.33398 -6 5.00098c-0.666992 0.666992 -2.33398 2 -5.00098 4c0 10.667 -0.333008 16.667 -1 18l-37 -23c-18.667 -10.667 -33 -16 -43 -16c-4.66699 0 -8.33398 5.33301 -11.001 16c0 1.33301 -0.666992 4 -2 8
c0 15.333 12 37.166 36 65.499s46 42.5 66 42.5c2.66699 0 8 -4.33301 16 -13c2.66699 -2.66699 5.66699 -5.33398 9 -8.00098c3.33301 7.33301 8.83301 22 16.5 44s13.834 40.333 18.501 55h-138v252h102v-150h106c8.66699 0 20.334 4 35.001 12c38 20.667 57 48.667 57 84
c0 22 -10.333 44 -31 66s-41 33 -61 33h-258v102h261c52.667 0 97.667 -20.333 135 -61s56 -87.334 56 -140.001zM1581 530.002l-75 -41.0029c-20 -11.333 -38.333 -27.666 -55 -48.999h24c8 0 18.5 2.5 31.5 7.5s30.833 7.5 53.5 7.5c-8 -18 -23.5 -35.667 -46.5 -53
s-43.5 -26.666 -61.5 -27.999c4 4.66699 16 13.334 36 26.001s33.667 26 41 40h-11l-75 -24h-10v15c0 8 19 27 57 57s64 45 78 45zM936.002 529.999c-12 -12.667 -26.333 -21.667 -43 -27c-33.333 -10.667 -62.333 -31.667 -87 -63h25c8 0 16.667 1.33301 26 4
c25.333 7.33301 44.333 11 57 11c-3.33301 -8 -6.66602 -14.333 -9.99902 -19c-20.667 -29.333 -52.334 -50 -95.001 -62c4 5.33301 20.667 18 50 38c10 7.33301 18.333 16.666 25 27.999h-11c-16.667 -7.33301 -34.667 -13.666 -54 -18.999c-6 -1.33301 -14 -3 -24 -5
c-6.66699 0 -10 5 -10 15c2 3.33301 4 6.33301 6 9c11.333 14.667 29.333 30.667 54 48l58 38c8 4.66699 14.667 7 20 7zM1422 508.999c0 -34.667 -23.5 -60.332 -70.5 -76.999s-70.5 -30 -70.5 -40c0 -4 3.33301 -8 10 -12s12 -6 16 -6c9.33301 0 27 7.66699 53 23
c31.333 18.667 51 29 59 31c-16 -18.667 -35.5 -34.334 -58.5 -47.001s-40.833 -19 -53.5 -19c-8.66699 0 -15.667 4 -21 12s-8 17 -8 27c0 4 -0.333008 7 -1 9c-2 3.33301 -3 5.33301 -3 6c0.666992 0.666992 18.334 23 53.001 67c21.333 27.333 47.666 41 78.999 41
c10.667 0 16 -5 16 -15zM1254 512.001l-43 -113.999v-9c0 -6.66699 -3 -12.334 -9 -17.001c-3.33301 -2.66699 -8 -6 -14 -10c0.666992 2 0.666992 5 0 9c0 1.33301 -0.333008 3.33301 -1 6l60 141zM465.002 470.002c0 -8 -4 -26.333 -12 -55s-16 -44.334 -24 -47.001v15
l12 38.5c4 13 8 30.167 12 51.5c-19.333 -5.33301 -38.333 -21 -57 -47c-14.667 -20.667 -28 -37 -40 -49h-11c5.33301 18 11 36 17 54c12 34.667 21.333 54.667 28 60v-15c-2 -5.33301 -4 -11.833 -6 -19.5s-3.33301 -14.167 -4 -19.5c8 2.66699 19 11.334 33 26.001
s27.333 24 40 28h12v-21zM1281 569.002l-255.999 0.000976562c-4 -6 -8.66699 -14 -14 -24s-9.33301 -18 -12 -24h18c6 2.66699 13.167 5 21.5 7s14.166 3.66699 17.499 5h21v-15c-6 -2.66699 -10.667 -4 -14 -4c-4 2.66699 -10.667 4 -20 4
c-30.667 0 -52.667 -11.333 -66 -34c-12 -30.667 -22 -53.334 -30 -68.001v-15h10c0 -12 -1 -21 -3 -27h113c0 18 6.5 35.667 19.5 53l40.5 52c-10 6.66699 -19.667 13.667 -29 21h18l6 -6c4.66699 -4 9.66699 -6 15 -6c0.666992 0 5.66699 2 15 6s16.333 6 21 6l11 -3
c-14 -7.33301 -27.333 -18.666 -40 -33.999c-20 -24.667 -35.333 -55.334 -46 -92.001c62.667 -18 108.334 -43 137.001 -75s43 -74 43 -126c0 -54.667 -20.667 -102.667 -62 -144c-38.667 -38.667 -81.334 -58 -128.001 -58h-212v253h102v-150h107
c20 0 40.167 11.167 60.5 33.5s30.5 44.166 30.5 65.499c0 20.667 -10.333 42.334 -31 65.001s-40.667 34 -60 34h-209v102h57c0 15.333 2.66699 31.666 8 48.999c12.667 42 19 64.667 19 68c-4.66699 -4.66699 -11 -8.66699 -19 -12v12l36 25
c11.333 12.667 21.333 31.334 30 56.001h-29v252h303v-102h-201v-48h201v-102zM1757 -31.9971h-401l95 253h102v6l-50 144h110l144 -393v-10zM327.003 -31.9971h-102v247c0 10.667 -4 21.667 -12 33c-10 14 -22.333 21 -37 21c-12.667 0 -24.167 -5.5 -34.5 -16.5
s-15.5 -23.5 -15.5 -37.5v-345h-102v360c0 37.333 16 71.333 48 102c27.333 26 62 39 104 39c40 0 75.167 -14.5 105.5 -43.5s45.5 -61.5 45.5 -97.5v-262zM1278 872.003v93h-295v-93h295zM1278 572.003l-0.00195312 93h-201v57h201v96h-295v-246h24
c1.33301 13.333 10 34 26 62c4.66699 8.66699 12.334 21 23.001 37h14v-12c-1.33301 -2 -8 -15.667 -20 -41c-5.33301 -12 -12.666 -27.333 -21.999 -46h214c3.33301 6 8.33301 9 15 9c3.33301 0 7 -1 11 -3zM1412 500.003v15h-11c-15.333 0 -32.333 -8.66699 -51 -26
c-31.333 -40 -47.333 -60.333 -48 -61c14.667 2 31.667 8.66699 51 20c23.333 14 43 31.333 59 52zM591.001 440.003c0 7.33301 -0.668945 12.667 -2.00195 16c-2 4 -6.33301 9.66699 -13 17c-13.333 -7.33301 -23.666 -13.333 -30.999 -18
c-25.333 -15.333 -44 -41.333 -56 -78h14c6.66699 0 22.334 8 47.001 24c27.333 18 41 31 41 39zM1124 437.004l0.000976562 12c-9.33301 -8.66699 -17.5 -19.167 -24.5 -31.5l-19.5 -34.5c12.667 3.33301 22 11.333 28 24c9.33301 18.667 14.666 28.667 15.999 30z
M1754 -27.9961l-144 396h-102l112 -291v-9h-127v9l60 138l-99 3l-92 -235v-11h392zM1275 170.004c0 18 -5.16699 40.166 -15.5 66.499s-23.5 47.833 -39.5 64.5s-34 31 -54 43c-26.667 16 -51.334 24 -74.001 24h-141c-4 -8 -11.333 -12 -22 -12v12h-48v-96h211
c18.667 0 37.834 -10.167 57.501 -30.5s29.5 -44.166 29.5 -71.499c0 -26 -9.5 -49.5 -28.5 -70.5s-38.5 -31.5 -58.5 -31.5h-117v150h-94v-246h204c46 0 89.167 19.5 129.5 58.5s60.5 85.5 60.5 139.5zM800 -27.9971l-146 396h-102h5l108 -291v-9h-126v9l60 138l-99 3
l-92 -235v-11h392zM1610 74.0029c-2.66699 4 -11.333 26.1689 -26 66.502s-22.667 63.166 -24 68.499c-6 -10 -13 -25.333 -21 -46c-18.667 -50.667 -30.667 -80.334 -36 -89.001h107zM654.001 74.0049l-49 135.001c-11.333 -22.667 -22 -49.334 -32 -80.001
c-7.33301 -22.667 -15.333 -41 -24 -55h105zM324.001 -27.9941v255.001c0 24.667 -13.667 53 -41 85c-32 37.333 -67.667 56 -107 56c-36 0 -69.833 -14.5 -101.5 -43.5s-47.5 -61.5 -47.5 -97.5v-354h96v348c0 14 5.33301 26 16 36s23 15 37 15
c12 0 23.667 -5.33301 35 -16s17 -22.334 17 -35.001v-249h96zM600.001 665.007l2 152.998h-95v-246h131l25 72l20 3l-24 -75h60c6 2.66699 14.667 4.33398 26 5.00098s22.666 3 33.999 7c26.667 11.333 52.334 32.333 77.001 63c30.667 38 46 78 46 120
c0 46 -17.667 89.333 -53 130c-39.333 45.333 -85.333 68 -138 68h-253v-93h261c16.667 0 34.667 -10.333 54 -31c22 -23.333 33 -48 33 -74c0 -42 -19.333 -71.667 -58 -89c-12.667 -5.33301 -32 -9.66602 -58 -12.999h-90z" />
    <glyph glyph-name="plus" unicode="+" 
 />
    <glyph glyph-name="comma" unicode="," horiz-adv-x="192" 
d="M150 54c0 -30 -7.99902 -59.334 -23.999 -88.001c-2.66699 -5.33301 -37.667 -49.333 -105 -132h-38v22c32 26.667 55.333 51.167 70 73.5s22 43.5 22 63.5c0 10.667 -10.333 26 -31 46s-31 40.667 -31 62c0 22.667 6.16699 38.334 18.5 47.001s29.166 13 50.499 13
c20.667 0 37.167 -9.83301 49.5 -29.5s18.5 -45.5 18.5 -77.5z" />
    <glyph glyph-name="hyphen" unicode="-" horiz-adv-x="336" 
d="M0 488c1.33301 6.66699 1.99805 11.333 1.99805 14s-0.666992 8.66699 -2 18h176c14 0 27.667 -0.166992 41 -0.5s26.333 -0.5 39 -0.5c12 0 20 0.333008 24 1v-39c-12.667 -3.33301 -23.5 -5.83301 -32.5 -7.5s-16.5 -2.5 -22.5 -2.5c-5.33301 0 -12.333 0.5 -21 1.5
s-14 1.5 -16 1.5c-10.667 0 -19.667 -0.666992 -27 -2c-41.333 2.66699 -76.166 4.5 -104.499 5.5s-47.166 4.5 -56.499 10.5z" />
    <glyph glyph-name="hyphen" unicode="&#xad;" horiz-adv-x="336" 
d="M0 488c1.33301 6.66699 1.99805 11.333 1.99805 14s-0.666992 8.66699 -2 18h176c14 0 27.667 -0.166992 41 -0.5s26.333 -0.5 39 -0.5c12 0 20 0.333008 24 1v-39c-12.667 -3.33301 -23.5 -5.83301 -32.5 -7.5s-16.5 -2.5 -22.5 -2.5c-5.33301 0 -12.333 0.5 -21 1.5
s-14 1.5 -16 1.5c-10.667 0 -19.667 -0.666992 -27 -2c-41.333 2.66699 -76.166 4.5 -104.499 5.5s-47.166 4.5 -56.499 10.5z" />
    <glyph glyph-name="period" unicode="." horiz-adv-x="181" 
d="M150 72c0 -22 -10.666 -40.333 -31.999 -55c-16 -11.333 -29 -17 -39 -17c-18 0 -34.333 6.66699 -49 20s-22 27.666 -22 42.999c0 16.667 7.33301 33.334 22 50.001c17.333 19.333 36.666 29 57.999 29c26 0 43.667 -8.33301 53 -25c6 -10.667 9 -25.667 9 -45z" />
    <glyph glyph-name="slash" unicode="/" horiz-adv-x="282" 
d="M288 1061c-3.33301 -5.33301 -20.668 -105.999 -52.001 -301.999c-37.333 -230 -70.666 -407.667 -99.999 -533c-46 -193.333 -89 -297.333 -129 -312l9 52c17.333 25.333 38.333 132.666 63 321.999c34.667 266 58.667 435 72 507c34 183.333 72.333 288 115 314l30 -5z
" />
    <glyph glyph-name="zero" unicode="0" horiz-adv-x="856" 
d="M775 531c0 -44 -15.332 -105.332 -45.999 -183.999c-36.667 -94.667 -81.334 -172.334 -134.001 -233.001c-66.667 -76.667 -137.667 -115 -213 -115h-101c-60 0 -119.333 31 -178 93c-68 72 -102 159.667 -102 263v23c0 7.33301 0.666992 16 2 26
c-2 7.33301 -3.66699 12.666 -5 15.999c0 0.666992 -0.333008 1.66699 -1 3c1.33301 -1.33301 2.33301 -2 3 -2c2 0.666992 3 7.66699 3 21c0 66.667 19 144.334 57 233.001s85.667 163 143 223c64 67.333 128 101 192 101h139c9.33301 0 30 -8.33301 62 -25
c48 -24.667 86.667 -55.667 116 -93c42 -52.667 63 -114.667 63 -186v-164zM597.001 556.001l0.00292969 215c0 42 -21 82 -63 120c-14 12.667 -35 27.667 -63 45c-52 0 -101 -36 -147 -108c-32.667 -51.333 -62.334 -118.333 -89.001 -201l-30 -109v-241
c6 -42 13 -73.333 21 -94c25.333 -63.333 64.666 -95 117.999 -95c54.667 0 103 32 145 96c33.333 50.667 60.666 117.667 81.999 201c17.333 68 26 125 26 171z" />
    <glyph glyph-name="one" unicode="1" horiz-adv-x="611" 
d="M555 938c-56.667 -142.667 -95.001 -303 -115.001 -481c-24 -215.333 -37 -326.333 -39 -333c-21.333 -82.667 -68.666 -124 -141.999 -124c-49.333 0 -74 24.667 -74 74c0 54 15 123.333 45 208l86.5 225c29.667 77.333 44.5 136.333 44.5 177c0 11.333 -1 22 -3 32
l-334 -333h-24v49l506 568h49v-62z" />
    <glyph glyph-name="two" unicode="2" horiz-adv-x="839" 
d="M763 738c0 -86.667 -39.333 -164.005 -118 -232.005c-34 -29.333 -110.667 -78.666 -230 -147.999c-88.667 -51.333 -139.334 -95.666 -152.001 -132.999l300 -100c14 0 48 21.667 102 65c30 24 54.333 40 73 48v-50c-56 -78.667 -104.667 -129.667 -146 -153
s-88.666 -35 -141.999 -35c-47.333 0 -101 16.667 -161 50s-106.333 50 -139 50c-10 0 -35.667 -15.333 -77 -46c-24.667 -18 -49 -31.667 -73 -41v50c36.667 60.667 110.334 139 221.001 235c134 116 219.333 194.667 256 236c82 92.667 123 181.334 123 266.001
c0 44 -19.667 81.333 -59 112c-32.667 25.333 -63 38 -91 38c-43.333 0 -88 -16 -134 -48c-60.667 -42 -91 -96.667 -91 -164c0 -49.333 20.667 -82 62 -98c33.333 -13.333 58.666 -26.666 75.999 -39.999c-18 -16 -30.833 -26.833 -38.5 -32.5s-14.167 -8.5 -19.5 -8.5
c-1.33301 0 -7.66602 0.666992 -18.999 2s-23.333 2 -36 2c-56.667 0 -97.834 14.167 -123.501 42.5s-38.5 68.166 -38.5 119.499c0 76.667 41.333 144.334 124 203.001c68 48 126.667 72 176 72h137c48.667 0 97 -20 145 -60c62 -51.333 93 -118.666 93 -201.999z" />
    <glyph glyph-name="three" unicode="3" horiz-adv-x="825" 
d="M750 775c0 -38.667 -19.333 -79.333 -58 -122c-88 -70 -135.333 -108.333 -142 -115c0.666992 -1.33301 38 -25.666 112 -72.999c42 -27.333 63 -82.333 63 -165c0 -64 -25 -121.333 -75 -172c-38.667 -38.667 -88.667 -71 -150 -97
c-49.333 -20.667 -86.666 -31 -111.999 -31h-163c-47.333 0 -92.333 14.667 -135 44c-60 41.333 -90 101.666 -90 180.999c0 48 7.5 80.833 22.5 98.5s40.833 26.5 77.5 26.5c32 0 54.667 -4 68 -12s20 -24.667 20 -50c0 -23.333 -10.5 -46.5 -31.5 -69.5
s-31.5 -45.833 -31.5 -68.5c0 -32.667 15 -58 45 -76c26.667 -16 61.667 -24 105 -24c75.333 0 137.666 28.333 186.999 85c58.667 67.333 88 130.666 88 189.999c0 66.667 -33.667 112.667 -101 138c-42 16 -99.333 24 -172 24h-27.5h-11.5v51l175.5 43.5
c57.667 15 97.5 34.833 119.5 59.5c28 31.333 42 80.333 42 147c0 91.333 -37.333 137 -112 137h-100c-21.333 0 -48.333 -12.667 -81 -38c-38 -29.333 -57 -58.333 -57 -87c0 -24.667 12.333 -42.334 37 -53.001c18.667 -8 43.667 -12 75 -12c13.333 0 25 0.333008 35 1
s19.333 1.33398 28 2.00098v-38c-26 -7.33301 -53 -19 -81 -35c-17.333 -10 -40.333 -15 -69 -15c-35.333 0 -65.333 12 -90 36c-31.333 30.667 -47 60.334 -47 89.001l29 58c28.667 44.667 66 80.667 112 108c65.333 39.333 143.333 59 234 59c64 0 122.667 -21 176 -63
c57.333 -45.333 86 -99.333 86 -162z" />
    <glyph glyph-name="four" unicode="4" horiz-adv-x="746" 
d="M678 378c-25.333 -12 -47.333 -20.666 -66 -25.999s-35.334 -8 -50.001 -8c-19.333 0 -33.666 5.66699 -42.999 17c-2.66699 3.33301 -5.33398 9 -8.00098 17c-18 0 -30.333 -32.667 -37 -98c-9.33301 -92 -19 -152.667 -29 -182
c-21.333 -65.333 -58.666 -98 -111.999 -98c-16 0 -31 7.33301 -45 22s-21 29.667 -21 45l88 266v34c-66 0 -115.5 -0.666992 -148.5 -2s-70.5 -2.66602 -112.5 -3.99902c-23.333 0 -54.666 2 -93.999 6v33c92 115.333 158.333 228.666 199 339.999l56 197
c15.333 42 48.666 63 99.999 63c52 0 78 -18.667 78 -56c0 -22.667 -21.333 -71.334 -64 -146.001c-40 -69.333 -83.333 -138.666 -130 -207.999c-42 -62 -77.333 -110.667 -106 -146h222c29.333 0 54.833 21.5 76.5 64.5l63.5 129.5
c29.333 53.333 64.333 88.666 105 105.999v-44c-14.667 -36.667 -28.5 -77.667 -41.5 -123s-28.833 -78.333 -47.5 -99v-67h167v-33z" />
    <glyph glyph-name="five" unicode="5" horiz-adv-x="811" 
d="M737 963c-10 -39.333 -36.335 -72.332 -79.002 -98.999c-54 -34 -102.667 -51 -146 -51h-225c-34 0 -58.333 -28.833 -73 -86.5s-23.667 -91.5 -27 -101.5c11.333 -2.66699 24.833 -5.16699 40.5 -7.5s28.167 -3.5 37.5 -3.5c10.667 0 30.667 1.83301 60 5.5
s50 5.5 62 5.5c89.333 0 165.333 -20.333 228 -61c73.333 -48 110 -115 110 -201c0 -108.667 -40.333 -197 -121 -265c-77.333 -65.333 -174.666 -98 -291.999 -98c-80.667 0 -150.667 18.667 -210 56c-68 42.667 -102 99 -102 169c0 24 6 46.333 18 67
c18 30.667 45.333 46 82 46c26.667 0 45.834 -5.83301 57.501 -17.5s17.5 -30.834 17.5 -57.501c0 -21.333 -6.33301 -43 -19 -65s-19 -42 -19 -60c0 -25.333 19.667 -45 59 -59c30 -10.667 60.333 -16 91 -16c81.333 0 147.666 38 198.999 114
c42.667 63.333 64 129.333 64 198c0 66 -20.333 114.667 -61 146c-36 28 -86.667 42 -152 42c-68.667 0 -121.5 -18.833 -158.5 -56.5s-63.167 -56.5 -78.5 -56.5c-10 0 -18.833 3.83301 -26.5 11.5s-11.5 16.5 -11.5 26.5l50 132c40.667 106 74 188.333 100 247
c39.333 88.667 64.333 133 75 133c26.667 -8 47.334 -14 62.001 -18c47.333 -12.667 81 -19 101 -19c78 0 132.333 1.33301 163 4l60 12c2.66699 0 10.5 -1.83301 23.5 -5.5s26.5 -7.16699 40.5 -10.5z" />
    <glyph glyph-name="six" unicode="6" horiz-adv-x="786" 
d="M714 345c0 -97.333 -39.3359 -180.332 -118.003 -248.999c-73.333 -64 -157 -96 -251 -96c-109.333 0 -197 42.667 -263 128c-54.667 70.667 -82 147 -82 229c0 106 44.333 213 133 321c73.333 89.333 164.333 167 273 233c98 59.333 173 89 225 89
c8.66699 0 13.667 -1 15 -3c6.66699 -8.66699 13.334 -15.667 20.001 -21c-8.66699 -14 -47 -40 -115 -78c-81.333 -44.667 -143.666 -88.334 -186.999 -131.001c-71.333 -70 -121.333 -155 -150 -255c18 2.66699 53.667 18 107 46c46.667 24.667 98.334 37 155.001 37
c70.667 0 128 -23.667 172 -71s66 -107 66 -179zM534.997 274.001l-0.000976562 165.999c-19.333 10 -38.666 26.333 -57.999 49c-12.667 15.333 -33 23 -61 23c-39.333 0 -75.333 -15.333 -108 -46c-48 -45.333 -83.333 -73.666 -106 -84.999v-167
c0 -27.333 13.833 -58 41.5 -92s57.5 -51 89.5 -51c58.667 0 102 18.333 130 55z" />
    <glyph glyph-name="seven" unicode="7" horiz-adv-x="755" 
d="M687 916c-117.333 -191.333 -208.665 -374.335 -273.998 -549.002l-97 -285c-24 -54.667 -65 -82 -123 -82c-30.667 0 -52.334 3.5 -65.001 10.5s-19 19.5 -19 37.5c0 46 35.333 124.667 106 236l196 290c71.333 106.667 107 176.334 107 209.001
c-20 6.66699 -81 23.667 -183 51c-52 14 -79.333 21 -82 21c-70.667 0 -117 -42.167 -139 -126.5s-47.667 -126.5 -77 -126.5c-15.333 0 -25.333 3.33301 -30 10s-7 16.334 -7 29.001v10l121 349h36v-60c41.333 7.33301 75.333 18.333 102 33c17.333 10 47.666 15 90.999 15
s82 -12 116 -36s67.667 -36 101 -36c24.667 0 41 4.66699 49 14c12 14 35.667 25.333 71 34v-48z" />
    <glyph glyph-name="eight" unicode="8" horiz-adv-x="880" 
d="M800 763c0 -30.667 -13.333 -61.334 -40 -92.001c-6.66699 -7.33301 -56 -47.666 -148 -120.999c52 -42 88.333 -73 109 -93c36 -35.333 54 -87.666 54 -156.999c0 -92.667 -35.5 -165.834 -106.5 -219.501s-168.833 -80.5 -293.5 -80.5c-131.333 0 -229.333 26 -294 78
c-54 43.333 -81 100.666 -81 171.999c0 36 20 75 60 117c30.667 32 68 63 112 93l65 40l-84 95c-18.667 32.667 -28 72 -28 118c0 58.667 30.333 118.334 91 179.001c72 72 158.333 108 259 108c79.333 0 151.333 -20.667 216 -62c72.667 -46.667 109 -105 109 -175z
M650 775c0 46.667 -22.665 85.332 -67.998 115.999c-34 22.667 -61.333 34 -82 34c-58.667 0 -108.834 -15.167 -150.501 -45.5s-62.5 -65.166 -62.5 -104.499c0 -38 30.333 -76 91 -114c51.333 -32 87.666 -48 108.999 -48c52 0 94 22 126 66c24.667 34 37 66 37 96z
M612.002 224.998c0 42.667 -24.667 82.332 -74 118.999c-36 26.667 -82 50.334 -138 71.001c-42 15.333 -67 23 -75 23c-36 0 -73 -26.333 -111 -79c-34.667 -48 -52 -88.333 -52 -121c0 -39.333 16.667 -77 50 -113c30.667 -33.333 60 -50 88 -50h162c21.333 0 49 12 83 36
c44.667 32 67 70 67 114z" />
    <glyph glyph-name="nine" unicode="9" horiz-adv-x="795" 
d="M723 566c0 -64 -35.834 -141.002 -107.501 -231.002s-156.167 -167 -253.5 -231c-105.333 -69.333 -198 -104 -278 -104h-48v48c131.333 52.667 230 107.334 296 164.001c78 67.333 132 153.333 162 258h-60c-42 -28.667 -73 -47 -93 -55
c-27.333 -11.333 -60.666 -17 -99.999 -17c-62.667 0 -118.5 26.167 -167.5 78.5s-73.5 106.5 -73.5 162.5c0 96 36.167 180.167 108.5 252.5s156.833 108.5 253.5 108.5c73.333 0 140.333 -18 201 -54c49.333 -29.333 89.333 -66.666 120 -111.999
c26.667 -39.333 40 -72.333 40 -99v-169zM517.999 698.998c0 3.33301 0.500977 11.667 1.50098 25s1.5 22 1.5 26c0 48 -8 86 -24 114c-24 42.667 -65 64 -123 64c-54.667 0 -97.667 -26.667 -129 -80c-26.667 -46 -40 -99.667 -40 -161v-109c0 -24 9.66699 -44 29 -60
s41.666 -24 66.999 -24c44.667 0 90 17.667 136 53c54 41.333 81 92 81 152z" />
    <glyph glyph-name="colon" unicode=":" horiz-adv-x="181" 
d="M150 72c0 -22 -10.666 -40.333 -31.999 -55c-16 -11.333 -29 -17 -39 -17c-18 0 -34.333 6.66699 -49 20s-22 27.666 -22 42.999c0 16.667 7.33301 33.334 22 50.001c17.333 19.333 36.666 29 57.999 29c26 0 43.667 -8.33301 53 -25c6 -10.667 9 -25.667 9 -45z
M168.001 396c0 -22 -10.666 -40.333 -31.999 -55c-16 -11.333 -29 -17 -39 -17c-18 0 -34.333 6.66699 -49 20s-22 27.666 -22 42.999c0 16.667 7.33301 33.334 22 50.001c17.333 19.333 36.666 29 57.999 29c26 0 43.667 -8.33301 53 -25c6 -10.667 9 -25.667 9 -45z" />
    <glyph glyph-name="semicolon" unicode=";" horiz-adv-x="181" 
d="M168 396c0 -22 -10.666 -40.333 -31.999 -55c-16 -11.333 -29 -17 -39 -17c-18 0 -34.333 6.66699 -49 20s-22 27.666 -22 42.999c0 16.667 7.33301 33.334 22 50.001c17.333 19.333 36.666 29 57.999 29c26 0 43.667 -8.33301 53 -25c6 -10.667 9 -25.667 9 -45z
M150.001 54c0 -30 -7.99902 -59.334 -23.999 -88.001c-2.66699 -5.33301 -37.667 -49.333 -105 -132h-38v22c32 26.667 55.333 51.167 70 73.5s22 43.5 22 63.5c0 10.667 -10.333 26 -31 46s-31 40.667 -31 62c0 22.667 6.16699 38.334 18.5 47.001s29.166 13 50.499 13
c20.667 0 37.167 -9.83301 49.5 -29.5s18.5 -45.5 18.5 -77.5z" />
    <glyph glyph-name="less" unicode="&#x3c;" 
 />
    <glyph glyph-name="equal" unicode="=" 
 />
    <glyph glyph-name="greater" unicode="&#x3e;" 
 />
    <glyph glyph-name="question" unicode="?" horiz-adv-x="693" 
d="M375 72c0 -22 -10.666 -40.333 -31.999 -55c-16 -11.333 -29 -17 -39 -17c-18 0 -34.333 6.66699 -49 20s-22 27.666 -22 42.999c0 16.667 7.33301 33.334 22 50.001c17.333 19.333 36.666 29 57.999 29c26 0 43.667 -8.33301 53 -25c6 -10.667 9 -25.667 9 -45z
M510.001 800c0 44 -19.665 81.3311 -58.998 111.998c-32.667 25.333 -63 38 -91 38c-43.333 0 -88 -16 -134 -48c-60.667 -42 -91 -96.667 -91 -164c0 -49.333 20.667 -82 62 -98c33.333 -13.333 58.666 -26.666 75.999 -39.999c-18 -16 -30.833 -26.833 -38.5 -32.5
s-14.167 -8.5 -19.5 -8.5c-1.33301 0 -7.66602 0.666992 -18.999 2s-23.333 2 -36 2c-56.667 0 -97.834 14.167 -123.501 42.5s-38.5 68.166 -38.5 119.499c0 76.667 41.333 144.334 124 203.001c68 48 126.667 72 176 72h137c48.667 0 97 -20 145 -60
c62 -51.333 93 -118.666 93 -201.999c0 -86.667 -27 -161 -81 -223c-24.667 -28 -78 -71.333 -160 -130c-64.667 -46 -103 -87.333 -115 -124c5.33301 10 43.666 74 114.999 192c30 49.333 50.5 96.5 61.5 141.5s16.5 113.5 16.5 205.5z" />
    <glyph glyph-name="at" unicode="@" 
 />
    <glyph glyph-name="A" unicode="A" horiz-adv-x="806" 
d="M814 806c0 -7.33301 -2.16211 -16.667 -6.49512 -28s-10.166 -23.333 -17.499 -36h-32c5.33301 38.667 10.666 65.667 15.999 81l16 32c-6.66699 14 -12.667 25 -18 33c-34.667 48 -82.334 72 -143.001 72c-104.667 0 -199.334 -53.333 -284.001 -160
c-65.333 -82 -120 -187.333 -164 -316c-34.667 -100.667 -52 -173.334 -52 -218.001v-97c0 -37.333 16.333 -69.333 49 -96c27.333 -22 51.333 -33 72 -33c100 0 176 62.667 228 188c20 47.333 50.667 168 92 362c30 138.667 65.667 216.334 107 233.001h57
c-3.33301 -23.333 -16.5 -88.166 -39.5 -194.499s-40.833 -194.5 -53.5 -264.5c-18.667 -104 -28 -182.333 -28 -235c0 -13.333 3 -27.333 9 -42s13.667 -22 23 -22c16.667 0 36.334 12.667 59.001 38c56.667 62.667 90.667 95.667 102 99v-33
c-28 -46.667 -59 -83.834 -93 -111.501s-67.333 -41.5 -100 -41.5c-42.667 0 -73.334 23 -92.001 69l-37 100c-69.333 -87.333 -113 -137.333 -131 -150c-32.667 -23.333 -69.667 -35 -111 -35c-68.667 0 -127.334 28.667 -176.001 86c-44 52 -66 106.667 -66 164v113
c0 66 29.333 148.667 88 248c63.333 107.333 139.666 195.666 228.999 264.999c106 82.667 212.667 124 320 124c45.333 0 86.166 -13.667 122.499 -41s54.5 -56.666 54.5 -87.999v-65z" />
    <glyph glyph-name="B" unicode="B" horiz-adv-x="764" 
d="M780 846c0 -53.333 -13.666 -104.999 -40.999 -154.999c-20 -36.667 -45.667 -70.334 -77 -101.001c-11.333 -11.333 -26 -23.666 -44 -36.999c46 -29.333 81.833 -56.666 107.5 -81.999s38.5 -55 38.5 -89v-73c0 -58.667 -34.667 -123.667 -104 -195
c-74 -76 -147.667 -114 -221 -114c-38 0 -71.833 12.167 -101.5 36.5s-44.5 52.833 -44.5 85.5c0 18.667 7.66699 42 23 70c11.333 20.667 22.666 38 33.999 52h40v-24c-43.333 -34.667 -65 -67.334 -65 -98.001c0 -19.333 9.5 -36.333 28.5 -51s44.833 -22 77.5 -22
c48 0 92.5 30.333 133.5 91s61.5 130.667 61.5 210c0 32 -6.33301 61.333 -19 88c-16 33.333 -36.667 50 -62 50c-6.66699 0 -31 -11 -73 -33c-20 -10.667 -36.333 -16 -49 -16c-4 0 -10.5 4 -19.5 12s-13.5 15 -13.5 21c0 18 23 36.667 69 56c64 26.667 107.333 50 130 70
c46.667 40.667 70 96 70 166v73c0 18.667 -13 39.667 -39 63s-51 35 -75 35c-23.333 0 -62.333 -16 -117 -48c-63.333 -37.333 -95 -73 -95 -107c0 -10 2.33301 -23 7 -39c12 -42 18 -80.333 18 -115c0 -67.333 -12.667 -151.333 -38 -252
s-56.666 -185.334 -93.999 -254.001c-43.333 -80 -86 -120 -128 -120c-28.667 -0 -53 20.333 -73 61c-16.667 33.333 -25 64.333 -25 93c0 55.333 19.667 132 59 230c26.667 66 63 144 109 234c40 78 60 118.667 60 122c0 23.333 -6.5 41.333 -19.5 54s-28.167 19 -45.5 19
c-24.667 -10.667 -43.334 -26 -56.001 -46c-21.333 -32.667 -38 -79.667 -50 -141h-24v65c22 68.667 48.667 116.667 80 144c27.333 23.333 60 35 98 35c18 0 35.333 -3.33301 52 -10l46 -23l42 42c36 32 72.667 58 110 78c54.667 28.667 107 43 157 43
c46 0 84.5 -14.5 115.5 -43.5s46.5 -65.833 46.5 -110.5zM236.001 504.001v137.999c-31.333 -46.667 -61 -105.334 -89 -176.001c-23.333 -58.667 -42.833 -117.167 -58.5 -175.5s-23.5 -98.166 -23.5 -119.499v-65c1.33301 -10.667 3 -18.667 5 -24
c6 -16.667 15.333 -25 28 -25c24 0 48 37.667 72 113c17.333 55.333 33.333 126 48 212c12 70.667 18 111.334 18 122.001z" />
    <glyph glyph-name="C" unicode="C" horiz-adv-x="701" 
d="M734 839c0 -14.667 -6.33105 -35.3311 -18.998 -61.998c-23.333 -49.333 -64 -109 -122 -179c-78.667 -95.333 -185 -203.333 -319 -324v-121c9.33301 -25.333 18.333 -44 27 -56c26.667 -38 60.667 -57 102 -57c74 0 138.667 33.333 194 100c48 58 72 113.333 72 166
c0 22.667 -8.33301 41.334 -25 56.001c-13.333 11.333 -26.333 17 -39 17c-36.667 0 -64.667 -23 -84 -69s-29 -106.333 -29 -181h-33c-10.667 15.333 -18.667 29.166 -24 41.499s-8 22.833 -8 31.5v64c0 32.667 17.667 67 53 103c38 38.667 76.667 58 116 58
c38 0 65.667 -12.333 83 -37c14.667 -20.667 22 -48.667 22 -84c0 -84.667 -30.833 -156.834 -92.5 -216.501s-135.5 -89.5 -221.5 -89.5c-68.667 0 -125.334 24 -170.001 72l-80 97l-50.5 -56.5c-7 -7.66699 -22.5 -31.834 -46.5 -72.501h-40v33
c91.333 106 137 162.333 137 169v105c0 72 27.333 160.5 82 265.5s118.667 193.833 192 266.5c81.333 80.667 154 121 218 121c31.333 0 54.666 -9.33301 69.999 -28s27 -31 35 -37v-96zM677.002 895.003c0 17.333 -3.66797 31.167 -11.001 41.5s-19.666 15.5 -36.999 15.5
c-62 0 -121 -47.333 -177 -142c-40 -68 -76.333 -156 -109 -264l-37 -143v-24c76.667 62 144.667 129.667 204 203c52 64 93.667 126.333 125 187c28 54.667 42 96.667 42 126z" />
    <glyph glyph-name="D" unicode="D" horiz-adv-x="910" 
d="M910 488c0 -119.333 -40.1709 -230.504 -120.504 -333.504s-167.5 -154.5 -261.5 -154.5c-44 0 -81 6.83301 -111 20.5s-52.667 20.5 -68 20.5c-32.667 -10.667 -63.334 -20.167 -92.001 -28.5s-57.667 -12.5 -87 -12.5c-43.333 0 -81 9 -113 27
c-38 21.333 -57 50.333 -57 87c0 24 10.333 44.333 31 61c16.667 13.333 30.667 20 42 20h89c9.33301 0 39 -10.667 89 -32c16.667 -6.66699 41.334 -17.667 74.001 -33c22 0 41.833 41.333 59.5 124l53.5 254c26.667 111.333 59.334 194 98.001 248
c8 11.333 19.833 30.333 35.5 57s30.834 40 45.501 40c8.66699 0 19.667 -2.33301 33 -7l-56 -93c-16.667 -37.333 -25 -71.666 -25 -102.999v-233v-59c-5.33301 -44 -21.333 -89.333 -48 -136c-20 -35.333 -43.333 -67.666 -70 -96.999
c-21.333 -24 -33.666 -36 -36.999 -36c19.333 -14.667 42 -26.334 68 -35.001s46.667 -13 62 -13c74 0 137.667 34.333 191 103c62.667 80.667 94 192.667 94 336c0 106.667 -25.667 206.334 -77 299.001c-60.667 109.333 -138 164 -232 164h-138
c-48.667 0 -102.667 -24.667 -162 -74c-66 -55.333 -99 -114.666 -99 -177.999c0 -46 18 -84.333 54 -115c30.667 -26 61.667 -39 93 -39c4.66699 0 17.5 4.16699 38.5 12.5s43.5 14.833 67.5 19.5v-32c-20.667 -34 -48 -61 -82 -81c-29.333 -16.667 -56.333 -25 -81 -25
c-47.333 0 -91.666 18.667 -132.999 56s-62 81 -62 131c0 46 16 96.667 48 152c37.333 64.667 87 117 149 157c75.333 48.667 161.333 73 258 73c117.333 0 219 -35.333 305 -106c89.333 -73.333 134 -162.666 134 -267.999v-138zM267.996 88.9961
c-38 16.667 -70.5 30.333 -97.5 41s-48.833 16 -65.5 16c-19.333 0 -35 -4.5 -47 -13.5s-18 -17.833 -18 -26.5c0 -14 11.333 -25.667 34 -35s49.334 -14 80.001 -14c19.333 0 36 1.33301 50 4c25.333 4.66699 46.666 14 63.999 28z" />
    <glyph glyph-name="E" unicode="E" horiz-adv-x="642" 
d="M650 862c0 -45.333 -19.002 -82.9961 -57.002 -112.996c-35.333 -28 -76 -42 -122 -42c-8 0 -12.667 1.33301 -14 4c-4 6.66699 -7.33301 11 -10 13c7.33301 12.667 32.333 28 75 46c31.333 13.333 47 44 47 92c0 36.667 -11.667 63 -35 79c-17.333 12 -41 18 -71 18
c-52.667 0 -96.334 -26 -131.001 -78c-26.667 -40 -40 -76.333 -40 -109v-65c0 -32.667 8.66699 -55.334 26 -68.001c12.667 -9.33301 32.334 -14 59.001 -14c10.667 0 21.334 0.333008 32.001 1l32 2c15.333 0 26.833 -2.33301 34.5 -7s11.5 -14 11.5 -28
c0 -12.667 -6.16699 -23.834 -18.5 -33.501s-27.833 -14.5 -46.5 -14.5h-89c-54 0 -101.333 -39 -142 -117c-35.333 -68 -53 -134.667 -53 -200c0 -62 17.667 -109.333 53 -142c32.667 -30 77.334 -45 134.001 -45c76.667 0 142.667 29 198 87c52 54.667 78 115 78 181
c0 24 -6.66699 44.833 -20 62.5s-31 26.5 -53 26.5c-29.333 0 -58.333 -19.333 -87 -58s-43 -76 -43 -112v-98c-28 6 -48.5 19.667 -61.5 41s-19.5 48.333 -19.5 81c0 53.333 19.167 99.166 57.5 137.499s84.166 57.5 137.499 57.5c38.667 0 70 -13 94 -39s36 -59 36 -99
c0 -36 -9.33301 -75 -28 -117c-24 -54 -58.667 -97.333 -104 -130c-57.333 -41.333 -127.333 -62 -210 -62c-91.333 0 -164.166 23.5 -218.499 70.5s-81.5 110.167 -81.5 189.5c0 62 16.667 117.667 50 167c24.667 36.667 60.667 72 108 106l102 69
c-30.667 14 -53.334 31.833 -68.001 53.5s-22 44.5 -22 68.5v65c0 39.333 26 83.666 78 132.999c54.667 52 107.334 78 158.001 78h98c36.667 0 69 -11 97 -33c32.667 -26 49 -61 49 -105z" />
    <glyph glyph-name="F" unicode="F" horiz-adv-x="764" 
d="M797 943c0 -30.667 -11.334 -51.3301 -34.001 -61.9971c-15.333 -7.33301 -38 -11 -68 -11h-20c0 -7.33301 -14.667 -56 -44 -146c-14 -42.667 -21 -86.334 -21 -131.001c0 -21.333 2.16699 -34.666 6.5 -39.999s12.5 -8 24.5 -8h17c12 0 24.333 1.83301 37 5.5
s35.667 12.5 69 26.5v-81c-8 -24.667 -13.333 -55.167 -16 -91.5s-13.667 -54.5 -33 -54.5c-14.667 0 -23 23 -25 69s-18 69 -48 69h-24v-98c0 -102 -29.333 -191.333 -88 -268c-62 -81.333 -138.333 -122 -229 -122h-106c-43.333 0 -85.666 17.333 -126.999 52
c-45.333 38 -68 83 -68 135c0 29.333 8 55.666 24 78.999s35 35 57 35c20 -2.66699 35 -5.33398 45 -8.00098c30 -9.33301 45 -23 45 -41c0 -7.33301 -12.667 -28.666 -38 -63.999c-12.667 -18 -19 -34.667 -19 -50c0 -30.667 12.667 -54.5 38 -71.5
s58.666 -25.5 99.999 -25.5c66.667 0 117 26.333 151 79c24 37.333 42.667 94 56 170c16.667 96 26.334 148.333 29.001 157v33h-49c-12 -4.66699 -25.833 -8.83398 -41.5 -12.501s-31.834 -5.5 -48.501 -5.5c-10.667 0 -18.667 0.333008 -24 1
c7.33301 33.333 36.333 52 87 56s84 37 100 99c12 45.333 29.333 87.333 52 126c3.33301 5.33301 29.333 44.666 78 117.999c-16.667 14.667 -54.667 33.334 -114 56.001c-70.667 27.333 -127.334 41 -170.001 41c-55.333 0 -97.666 -13 -126.999 -39s-44 -61.667 -44 -107
c0 -33.333 12.667 -62 38 -86s56 -36 92 -36c28.667 0 44.667 -0.333008 48 -1c9.33301 -4 23 -9 41 -15c-11.333 -16.667 -32.333 -33.667 -63 -51c-26 -14.667 -42.667 -22 -50 -22h-98c-26 0 -52.333 16.667 -79 50c-28.667 35.333 -43 72.666 -43 111.999
c0 71.333 33.333 131 100 179c52.667 38 100.667 57 144 57h122l252 -41c16.667 3.33301 31.334 7.83301 44.001 13.5s25 12.167 37 19.5h25c0 -4 0.333008 -9.83301 1 -17.5s1 -13.167 1 -16.5s-0.666992 -8.33301 -2 -15z" />
    <glyph glyph-name="G" unicode="G" horiz-adv-x="685" 
d="M686 541c-23.333 0 -39.1689 -10.5 -47.502 -31.5s-12.5 -50.833 -12.5 -89.5c0 -16.667 0.333008 -34 1 -52l2 -54c0 -81.333 -24.667 -153.333 -74 -216c-51.333 -65.333 -112.333 -98 -183 -98h-138c-12.667 0 -33.834 5.5 -63.501 16.5s-49.167 16.5 -58.5 16.5
c-5.33301 0 -12.666 -5.16699 -21.999 -15.5s-26 -32.166 -50 -65.499h-33v40c8.66699 12 22.334 26 41.001 42c10.667 9.33301 16 19.666 16 30.999c-16.667 21.333 -31 42.666 -43 63.999c-14 24.667 -21 51.667 -21 81c0 41.333 11.5 73.166 34.5 95.499
s51.5 33.5 85.5 33.5c24 0 39.5 -2.83301 46.5 -8.5s10.5 -18.5 10.5 -38.5c0 -24.667 -11.333 -46.334 -34 -65.001c-29.333 -24 -47 -43 -53 -57v-49c31.333 0 68.666 36.667 111.999 110c38 64 57 103 57 117c-38.667 26.667 -72 60.334 -100 101.001
c-31.333 44.667 -47 94 -47 148c0 76.667 27.333 159.667 82 249c62.667 102.667 132.334 154 209.001 154c26.667 0 51.334 -8.33301 74.001 -25c26 -19.333 39 -42.666 39 -69.999v-81c0 -30.667 -22.333 -97 -67 -199c-40.667 -93.333 -66.334 -145.666 -77.001 -156.999
v-25h62c51.333 10.667 96.333 41.667 135 93c48 64 79 100.667 93 110h24c0 -22 -2.66699 -39.333 -8 -52c-6.66699 -10 -13 -20 -19 -30c0 -2 1.83301 -4.66699 5.5 -8s10.834 -8.33301 21.501 -15zM433.997 807l-0.000976562 104.999l-22 21c-8 7.33301 -16 11 -24 11
c-37.333 0 -70.666 -35.667 -99.999 -107c-25.333 -61.333 -38 -114.333 -38 -159v-81c0 -25.333 6.66699 -49.666 20 -72.999s30.333 -39 51 -47c26 51.333 49.333 107.333 70 168c14 41.333 25.333 80.666 34 117.999c2.66699 14.667 5.66699 29.334 9 44.001z
M507.996 387.999c-120 -43.333 -189.333 -70.999 -208 -82.999c-13.333 -8 -26 -28.333 -38 -61c-16 -43.333 -52 -97 -108 -161c4.66699 -2.66699 22.334 -9.33398 53.001 -20.001l43 -15c75.333 0 138.666 39.667 189.999 119c45.333 70 68 143.667 68 221z" />
    <glyph glyph-name="H" unicode="H" horiz-adv-x="1105" 
d="M1113 911c-49.333 -68.667 -88.6729 -154.336 -118.006 -257.003c-20 -69.333 -36.833 -152.166 -50.5 -248.499s-22.5 -150.166 -26.5 -161.499v-90h25c33.333 0 63.333 13.667 90 41s50.667 41 72 41c0 -49.333 -27 -83.666 -81 -102.999l-81 -27
c-15.333 -6.66699 -23.666 -24.667 -24.999 -54s-23 -44 -65 -44c-29.333 0 -47.666 4.16699 -54.999 12.5s-11 24.833 -11 49.5v17c0 6 0.333008 12.333 1 19c-42 0 -88.333 13.5 -139 40.5s-80 40.5 -88 40.5l-39 -48c-33.333 -36.667 -68.333 -66.667 -105 -90
c-51.333 -32.667 -101 -49 -149 -49h-81c-44.667 0 -86 15 -124 45c-42 32.667 -63 72 -63 118c0 70 29.667 105 89 105c14.667 0 28.334 -4.66699 41.001 -14c16 -12 24 -26.333 24 -43c-10.667 -18.667 -20.167 -36 -28.5 -52s-12.5 -31 -12.5 -45s8 -27.333 24 -40
c20.667 -16.667 48 -25 82 -25c50 0 104.5 26.833 163.5 80.5s88.5 105.5 88.5 155.5c-7.33301 14 -12.666 25.667 -15.999 35c-10.667 28 -16 54 -16 78c0 55.333 12.333 91.333 37 108l71 42c25.333 28.667 38 84.334 38 167.001v114c0 44.667 -14.667 76 -44 94
c-21.333 13.333 -52.666 20 -93.999 20c-66.667 0 -124 -34.333 -172 -103c-37.333 -54 -56 -98.333 -56 -133c0 -28 10.5 -52.5 31.5 -73.5s45.833 -31.5 74.5 -31.5c16 0 29 2.66699 39 8l42 40h33c0.666992 -2.66699 1 -5 1 -7v-7c-0.666992 -9.33301 -1 -15.333 -1 -18
c0 -42.667 -13.667 -77.667 -41 -105s-62.666 -41 -105.999 -41c-50.667 0 -93.334 20.333 -128.001 61c-28 32.667 -42 63.667 -42 93v65c0 55.333 35 120 105 194c72.667 76.667 140.667 115 204 115h73c64.667 0 118 -27.333 160 -82c39.333 -50.667 59 -110 59 -178
c0 -26 -3.5 -58.167 -10.5 -96.5l-21.5 -115.5c0 -10 17 -36.667 51 -80c23.333 -29.333 44.333 -62 63 -98c29.333 25.333 54.333 87.666 75 186.999c26.667 128 48.334 212 65.001 252c37.333 89.333 93.333 143.333 168 162v-40zM787.993 162.998v81
c-18.667 48.667 -32.667 84 -42 106c-17.333 38.667 -41.333 68.334 -72 89.001c-11.333 -44.667 -24.5 -85.334 -39.5 -122.001s-28.833 -61 -41.5 -73l147 -81h48zM519.993 462.998c-6.66699 -2 -12.166 -4.66797 -16.499 -8.00098s-9.83301 -8.66602 -16.5 -15.999v-57
c13.333 13.333 22.166 25 26.499 35s6.5 25.333 6.5 46z" />
    <glyph glyph-name="I" unicode="I" horiz-adv-x="679" 
d="M705 623c0 -86 -12 -164.662 -36 -235.995c-16.667 -50 -38.667 -96 -66 -138c-24.667 -38 -37 -58 -37 -60c0 -10.667 18.5 -29.334 55.5 -56.001s56.833 -49 59.5 -67c-8 -2.66699 -16.333 -4 -25 -4c-17.333 0 -42.666 19.333 -75.999 58
c-16 18.667 -31.667 28 -47 28c-34.667 -38 -78.334 -71.333 -131.001 -100c-58.667 -32 -121.667 -48 -189 -48c-42.667 0 -86.667 13.667 -132 41c-54 32.667 -81 71 -81 115v65c0 25.333 15.167 53.5 45.5 84.5s58.833 46.5 85.5 46.5c22.667 0 42 -4.83301 58 -14.5
s24 -23.834 24 -42.501c0 -15.333 -33.333 -44 -100 -86c-31.333 -20 -47 -43.333 -47 -70c0 -16.667 12.167 -35.834 36.5 -57.501s44.833 -32.5 61.5 -32.5h82c32 0 74.167 25.167 126.5 75.5s78.5 88.166 78.5 113.499c0 1.33301 -12 23.333 -36 66
c-26 46 -48 91.333 -66 136c-24.667 60.667 -37 110.667 -37 150v156c0 43.333 15 93 45 149c37.333 70 82.333 105 135 105c77.333 0 134.333 -42 171 -126c28 -64.667 42 -148.334 42 -251.001zM574 656.005l0.00195312 204.998c0 14.667 -5 31.334 -15 50.001
c-14.667 26.667 -34.334 40 -59.001 40c-46 0 -77 -29 -93 -87c-19.333 -69.333 -32 -106 -38 -110v-213c3.33301 -2 16.666 -34 39.999 -96c16.667 -44 39 -94 67 -150c18 36.667 39.333 102.334 64 197.001c22.667 87.333 34 142 34 164z" />
    <glyph glyph-name="J" unicode="J" horiz-adv-x="584" 
d="M585 366c-11.333 -20 -35.832 -37.501 -73.499 -52.501s-61.167 -29.833 -70.5 -44.5l-50 -180c-40.667 -133.333 -85.334 -238.666 -134.001 -315.999c-70.667 -112.667 -147.667 -169 -231 -169c-30 0 -57.333 14 -82 42c-26.667 30.667 -40 67.667 -40 111
c0 78.667 36.667 166.334 110 263.001c78 103.333 172.667 181.333 284 234v24c-46 28 -85.667 77.667 -119 149c-28.667 61.333 -43 113.666 -43 156.999v95c0 64 21 130.333 63 199c50 81.333 110 122 180 122c40 0 73.833 -15.167 101.5 -45.5s41.5 -65.833 41.5 -106.5
v-185l-54 -306l6 -15c18 6 34.667 14 50 24c10.667 6.66699 19 10 25 10c6.66699 0 18.667 -3.33301 36 -10zM427.001 863.999c0 32.667 -6.66797 57.668 -20.001 75.001c-10.667 14 -25.667 21 -45 21c-38 0 -70.667 -28 -98 -84l-71 -197v-143
c10.667 -37.333 23.667 -74.5 39 -111.5s43 -72.833 83 -107.5c20.667 58.667 40.667 133.667 60 225c12.667 60 25.334 132 38.001 216c9.33301 61.333 14 96.666 14 105.999zM289 184c-22.667 4.66699 -59.665 -16 -110.998 -62c-55.333 -50 -102 -107.667 -140 -173
c-46 -79.333 -69 -154 -69 -224c0 -18 4.66699 -34.833 14 -50.5s20.666 -23.5 33.999 -23.5c55.333 0 103 43.333 143 130c24 52 49.667 134.667 77 248c23.333 95.333 40.666 147 51.999 155z" />
    <glyph glyph-name="K" unicode="K" horiz-adv-x="1093" 
d="M1105 991c-46 -36.667 -81.998 -81.001 -107.998 -133.001c-66.667 -135.333 -106 -209.333 -118 -222c-6.66699 -6.66699 -41 -28.334 -103 -65.001c-28.667 -16.667 -49.667 -33 -63 -49c77.333 -77.333 130.666 -157 159.999 -239c8.66699 -24 19.667 -78.333 33 -163
c6 -39.333 23 -59 51 -59c10.667 0 33.667 23.667 69 71c22 29.333 45 52.333 69 69c0.666992 -4.66699 1 -11 1 -19c0 -57.333 -29.333 -105.333 -88 -144c-46.667 -30.667 -87 -46 -121 -46c-48.667 0 -86 22.667 -112 68c-23.333 40.667 -35 93 -35 157v104
c0 39.333 -9 76.333 -27 111c-22 42.667 -51 64 -87 64c-12 0 -21.333 -30.667 -28 -92s-26.334 -129 -59.001 -203c-14.667 -36 -45.334 -76 -92.001 -120c-57.333 -54 -110.333 -81 -159 -81h-105c-49.333 0 -92.166 19.833 -128.499 59.5s-54.5 83.5 -54.5 131.5
c-0 26.667 9.33301 56 28 88c26.667 46 63.667 69 111 69c58.667 0 88 -20 88 -60c0 -16 -23.333 -38.333 -70 -67s-70 -59 -70 -91c0 -17.333 10.667 -36.333 32 -57c26.667 -25.333 59.334 -38 98.001 -38c59.333 0 114.666 54 165.999 162
c36.667 78 69.334 178.667 98.001 302l32 163c-3.33301 -0.666992 -32.333 -17.334 -87 -50.001c-42.667 -25.333 -91.667 -38 -147 -38c-54 0 -93.667 12.5 -119 37.5s-38 61.833 -38 110.5c0 22 6.33301 47.5 19 76.5s26.667 53.167 42 72.5h44v-26
c-8 -14 -13.667 -26.333 -17 -37c-6 -17.333 -9 -34.666 -9 -51.999c0 -36.667 14 -62.667 42 -78c20 -10.667 46 -16 78 -16c65.333 0 127 25.667 185 77c34.667 30.667 76.334 81.334 125.001 152.001c43.333 62.667 73.666 99.334 90.999 110.001
c1.33301 -4 -4.33398 -28.333 -17.001 -73c-9.33301 -34.667 -24.333 -85 -45 -151l-50 -159v-70c70 12 127.667 48.667 173 110l111 188c49.333 80 108 140.333 176 181h35v-36z" />
    <glyph glyph-name="L" unicode="L" horiz-adv-x="866" 
d="M875 767c0 -59.333 -26.667 -120.333 -80 -183c-38 -44.667 -88.333 -89 -151 -133l-86 -59l-100 -250c14.667 -10 48.167 -25 100.5 -45s88.166 -30 107.499 -30c36.667 0 70.667 12.333 102 37c26 20.667 50.333 50 73 88h25v-34c-30 -50.667 -64.667 -89 -104 -115
c-42.667 -28.667 -91.334 -43 -146.001 -43c-42 0 -93.333 11 -154 33c-20 7.33301 -46.333 18.666 -79 33.999c-28.667 -14.667 -51.667 -25.667 -69 -33c-53.333 -22.667 -94.333 -34 -123 -34c-50 0 -92 7.33301 -126 22c-43.333 18.667 -65 47.334 -65 86.001
c0 29.333 12.667 53.333 38 72s54.333 28 87 28h83c24 0 52.167 -5.5 84.5 -16.5s51.5 -16.5 57.5 -16.5c6.66699 0 12.334 6.33301 17.001 19c10 40.667 21 78.667 33 114v59c-40 0 -73.667 1.66699 -101 5c-66 8 -118.667 24.333 -158 49
c-55.333 34.667 -83 83.334 -83 146.001c0 34 9 66.333 27 97c31.333 53.333 86.333 98.666 165 135.999h41v-25l-88 -97c-24.667 -37.333 -37 -74.333 -37 -111c0 -46 16.667 -84.667 50 -116c36 -34 83.333 -51 142 -51c24.667 0 52 51.667 82 155
c41.333 142.667 75 239 101 289c54.667 104 124.334 156 209.001 156c36.667 0 66.667 -12 90 -36s35 -53.667 35 -89v-108zM825 833c0 36 -6.33105 64.502 -18.998 85.502s-31.334 31.5 -56.001 31.5c-43.333 0 -79.333 -32.333 -108 -97
c-20 -44.667 -36.667 -106.334 -50 -185.001c-6 -36.667 -11.667 -73.334 -17 -110.001v-91c77.333 41.333 140.666 105.333 189.999 192c40 70 60 128 60 174zM291.002 100.002c-19.333 13.333 -43.832 25 -73.499 35s-57.834 15 -84.501 15c-26 0 -46 -2.66699 -60 -8
c-21.333 -8 -32 -22 -32 -42c0 -14 15.333 -26.667 46 -38c10 -3.33301 25.333 -7.33301 46 -12c36.667 0 67.167 3.83301 91.5 11.5s46.5 20.5 66.5 38.5z" />
    <glyph glyph-name="M" unicode="M" horiz-adv-x="1354" 
d="M1354 125l-79.0029 -86.9971c-44 -42 -82 -63 -114 -63c-32.667 0 -60.667 14.667 -84 44s-35 61.666 -35 96.999v77l119 505c0 8.66699 -6.33301 20.667 -19 36s-23.334 23 -32.001 23c-64 0 -122 -64.667 -174 -194c-38 -94.667 -70.667 -214.667 -98 -360l-30 -195
c-2.66699 -2.66699 -13.167 -6.16699 -31.5 -10.5s-38.833 -6.5 -61.5 -6.5c-17.333 -0.666992 -27.666 -1 -30.999 -1c-4.66699 0 -7.66699 2.66699 -9 8s-4.33301 11.333 -9 18l150 723c0 22 -3.66699 38.833 -11 50.5s-17.666 17.5 -30.999 17.5
c-58 0 -115 -63 -171 -189c-41.333 -92.667 -80.666 -215.667 -117.999 -369l-56 -249h-142v33c10.667 24 30.334 86.667 59.001 188c33.333 118 59.666 223.333 78.999 316c26 123.333 39 216.333 39 279c0 44.667 -12.167 78.167 -36.5 100.5s-57.833 33.5 -100.5 33.5
c-62.667 0 -118.334 -28.333 -167.001 -85c-44.667 -52 -67 -105 -67 -159c0 -42.667 8.66699 -73 26 -91s45 -27 83 -27c22.667 0 40.334 4.33301 53.001 13c2 1.33301 15.333 14 40 38h23v-33c0 -35.333 -14.167 -66.5 -42.5 -93.5s-64.166 -40.5 -107.499 -40.5
c-44 0 -83 15.833 -117 47.5s-51 63.167 -51 94.5v76c-0 59.333 38.333 125 115 197c80 75.333 156.333 113 229 113h77c26.667 0 57 -12.333 91 -37c46 -33.333 69 -77 69 -131c0 -34.667 -0.333008 -59.334 -1 -74.001s-3.33398 -37.334 -8.00098 -68.001
c19.333 0 47.5 28.167 84.5 84.5s81.5 84.5 133.5 84.5c24.667 0 48.667 -7.33301 72 -22c30.667 -19.333 46 -46 46 -80v-109l8 -18c40.667 52 71.334 89 92.001 111c36 38.667 78.333 58 127 58c26.667 0 53.334 -15 80.001 -45c32 -35.333 48 -79.333 48 -132
c0 -17.333 -10.5 -71.5 -31.5 -162.5l-62.5 -264.5l-34 -136c0 -2.66699 6 -9.16699 18 -19.5s20.333 -15.5 25 -15.5c22 0 50 20.333 84 61c13.333 16 35.666 46.333 66.999 91h25v-51z" />
    <glyph glyph-name="N" unicode="N" horiz-adv-x="1033" 
d="M1033 157c-22.667 -37.333 -47.001 -69.9971 -73.001 -97.9971c-41.333 -44.667 -77.666 -67 -108.999 -67c-37.333 0 -69.333 16.333 -96 49c-24 29.333 -36 59.666 -36 90.999v91l115 513c-4 18.667 -8.66699 31 -14 37c-7.33301 8 -19 12 -35 12
c-31.333 0 -63.666 -18.333 -96.999 -55c-28 -38.667 -42.667 -58.667 -44 -60c-42.667 -50.667 -77 -116.334 -103 -197.001c-16 -49.333 -32.5 -119.333 -49.5 -210s-32.167 -153.334 -45.5 -188.001c-2 -14 -3.66699 -24.333 -5 -31c-4 -21.333 -8 -33 -12 -35l-82 -9
c-13.333 -0 -25 2.83301 -35 8.5s-15 13.834 -15 24.501c0.666992 0 14 48.667 40 146c32.667 120.667 58 220 76 298c27.333 118 41 196 41 234v132c0 34 -13 59.667 -39 77c-22 14.667 -50.333 22 -85 22c-45.333 0 -90.666 -19 -135.999 -57
c-58 -48.667 -87 -112.334 -87 -191.001c0 -40 11.333 -67.667 34 -83c15.333 -10.667 37 -16 65 -16c13.333 0 26.333 2.66699 39 8s30 16.666 52 33.999h25v-75c-20 -27.333 -34 -44.333 -42 -51c-30 -26.667 -63 -40 -99 -40c-55.333 0 -101.333 26 -138 78
c-28.667 40.667 -43 78 -43 112c0 26 13 63 39 111c33.333 60.667 74.333 109.667 123 147c64 48.667 136.667 73 218 73c62 0 112.667 -19.333 152 -58c37.333 -36.667 56 -80.667 56 -132c0 -17.333 -3.33301 -36.666 -10 -57.999v-66
c45.333 48 84.666 85.667 117.999 113c36 29.333 74 44 114 44c28.667 0 58 -14.333 88 -43c24 -22.667 36 -49.667 36 -81v-124l-108 -496c0 -24 1.66699 -38.167 5 -42.5s12.666 -6.5 27.999 -6.5c17.333 0 38.333 14 63 42c58 66.667 95 102 111 106v-33z" />
    <glyph glyph-name="O" unicode="O" horiz-adv-x="740" 
d="M740 537c0 -69.333 -21.335 -146.668 -64.002 -232.001s-97 -155.666 -163 -210.999c-74.667 -62.667 -150.667 -94 -228 -94c-60 0 -120 31.667 -180 95c-70 73.333 -105 161 -105 263c0 66 20.333 147.333 61 244c46 109.333 103.333 199.333 172 270
c82.667 85.333 170.334 128 263.001 128h73c30.667 0 62 -11 94 -33c36 -25.333 56.333 -55 61 -89v-24h-33c-21.333 42 -42.5 70 -63.5 84s-51.167 21 -90.5 21c-83.333 0 -168.666 -63.333 -255.999 -190c-90 -130 -135 -261.667 -135 -395v-130
c0 -52.667 18.333 -98.667 55 -138c30 -32.667 68.667 -49 116 -49c76 0 142 40.667 198 122c39.333 57.333 72.333 132.666 99 225.999l28 123v106c0 60 -5.33301 101.333 -16 124c-14.667 31.333 -44.334 47 -89.001 47c-41.333 0 -90 -35.333 -146 -106
c-65.333 -82.667 -98 -172 -98 -268c0 -8.66699 1.33301 -30 4 -64s4 -61.333 4 -82c0 -22.667 -1.16699 -42.167 -3.5 -58.5s-6.5 -32.166 -12.5 -47.499c-14 16 -24.333 34 -31 54s-10 37.333 -10 52v113c0 41.333 10 94.333 30 159c25.333 80.667 58 147 98 199
c50.667 65.333 108.334 98 173.001 98c61.333 0 111 -28.667 149 -86c30.667 -46 46 -90.667 46 -134v-97z" />
    <glyph glyph-name="P" unicode="P" horiz-adv-x="785" 
d="M785 576c0 -49.333 -23.6699 -105.667 -71.0029 -169s-90.666 -95 -129.999 -95h-63c-14 0 -30 7.33301 -48 22c-23.333 19.333 -35 42.333 -35 69c0 28 5.83301 48.833 17.5 62.5s28.834 20.5 51.501 20.5v-28l-32 -24c-2 -2 -3 -10 -3 -24
c0 -21.333 6.33301 -36 19 -44s29.667 -12 51 -12c30.667 0 59.334 17 86.001 51c30.667 39.333 46 87.333 46 144v173c-10 20.667 -19.667 41.667 -29 63c-26.667 48 -58 87 -94 117c-50.667 42 -107 63 -169 63c-62.667 0 -124.334 -20 -185.001 -60
c-70.667 -46.667 -106 -103 -106 -169c0 -24 8.66699 -45.333 26 -64c20 -22 46 -33 78 -33c18.667 0 29.334 0.333008 32.001 1c5.33301 1.33301 15.333 8 30 20h28v-35c-18 -25.333 -38.5 -45.5 -61.5 -60.5s-48.833 -22.5 -77.5 -22.5c-28 0 -58.333 12.333 -91 37
c-36.667 27.333 -55 56.666 -55 87.999v62c0 54.667 39 112.334 117 173.001c83.333 65.333 169.333 98 258 98h70c77.333 0 152 -29 224 -87c77.333 -62 116 -132.667 116 -212v-125zM513.997 867.999c-2.66699 0 -11.001 -14.001 -25.001 -42.001
c-19.333 -40 -35 -86.333 -47 -139c-16.667 -75.333 -25 -160.666 -25 -255.999v-63c-4.66699 -32 -9 -63.667 -13 -95c-12 -76.667 -24.333 -135.667 -37 -177c-19.333 -64 -39.666 -96 -60.999 -96h-70c-12.667 0 -21.5 3.33301 -26.5 10s-7.5 12.667 -7.5 18
c10.667 30 21.667 69 33 117c23.333 96 47 205 71 327c13.333 67.333 25.333 120.333 36 159c20 70.667 42.333 127.667 67 171c31.333 54.667 66.333 86 105 94v-28z" />
    <glyph glyph-name="Q" unicode="Q" horiz-adv-x="816" 
d="M816 142l-46.0049 -55.999c-48.667 -57.333 -94.334 -86 -137.001 -86h-92c-17.333 0 -43.166 6.33301 -77.499 19l-105.5 39c-29.333 -15.333 -59.666 -28.833 -90.999 -40.5s-67.666 -17.5 -108.999 -17.5c-42 0 -77.333 7.33301 -106 22c-34.667 18 -52 44 -52 78
c0 31.333 18 55.833 54 73.5s79 26.5 129 26.5c46.667 0 94 -7 142 -21c16 -4.66699 35.333 -11.667 58 -21c13.333 0 38.333 23.333 75 70c44 56 80.667 120.667 110 194c38 94.667 57 190 57 286c0 60 -11.667 114 -35 162c-28.667 58.667 -67 88 -115 88h-67
c-8 0 -27.333 -7.66699 -58 -23c-44 -22 -80 -49.333 -108 -82c-39.333 -46.667 -59 -100.334 -59 -161.001c0 -43.333 13.167 -82 39.5 -116s57.5 -51 93.5 -51c42 0 75 15.333 99 46c36.667 47.333 59.334 73.666 68.001 78.999v-58c0 -58 -18.333 -103.167 -55 -135.5
s-85 -48.5 -145 -48.5c-50 0 -94.5 21.167 -133.5 63.5s-58.5 93.5 -58.5 153.5c0 76 25.667 145.667 77 209c40.667 50 93 91.667 157 125c52.667 27.333 94.334 41 125.001 41h75c50 0 100.667 -24.333 152 -73c65.333 -61.333 98 -139.666 98 -234.999
c0 -90.667 -26.667 -181.667 -80 -273c-36.667 -62.667 -86 -126 -148 -190c-54 -56 -81 -85 -81 -87c0 -17.333 33.333 -33.666 100 -48.999c22 -4.66699 55.333 -10.667 100 -18c26.667 0 48.667 7.5 66 22.5s37 40.833 59 77.5c5.33301 -2.66699 11 -5.33398 17 -8.00098
c-1.33301 3.33301 1.33398 6 8.00098 8v-33zM282.995 75.001c-12 15.333 -36.499 28.834 -73.499 40.501s-65.167 17.5 -84.5 17.5c-20.667 0 -38.334 -3.33301 -53.001 -10s-22 -17 -22 -31c0 -12.667 8.66699 -23.334 26 -32.001c14 -6.66699 27.333 -10 40 -10h67
c12 0 36.333 5.33301 73 16c6.66699 1.33301 15.667 4.33301 27 9z" />
    <glyph glyph-name="R" unicode="R" horiz-adv-x="823" 
d="M823 126l-74.0029 -82.001c-38 -34.667 -80.333 -52 -127 -52c-48.667 0 -83 20.667 -103 62c-15.333 31.333 -23 75 -23 131c0 7.33301 4.16699 37.333 12.5 90s12.5 92.667 12.5 120c0 20 -2 36.167 -6 48.5s-13 27.5 -27 45.5h-119l-38 -133
c-29.333 -97.333 -59.666 -174.666 -90.999 -231.999c-45.333 -82.667 -91.666 -124 -138.999 -124c-22.667 0 -44.334 11.667 -65.001 35c-24 27.333 -36 60.666 -36 99.999c0 70 21 155.333 63 256c25.333 60 64.333 138 117 234c42 76 63 120 63 132
c0 19.333 -4.5 36.666 -13.5 51.999s-21.5 23 -37.5 23c-29.333 0 -54.666 -17.667 -75.999 -53l-75 -139v66c34.667 70 53.667 107 57 111c32.667 44 75.667 66 129 66c22 0 42 -5.66699 60 -17s31.333 -17 40 -17c43.333 39.333 88.333 73.666 135 102.999
c51.333 32 96 48 134 48h85c36 0 69.667 -16.667 101 -50c27.333 -28.667 41 -65 41 -109c0 -64 -25.333 -124.667 -76 -182l-192 -154c30 -23.333 51.333 -58.666 64 -105.999c8.66699 -32 13 -69.333 13 -112c0 -8.66699 -0.166992 -16.667 -0.5 -24
s-0.5 -13.666 -0.5 -18.999c0 -45.333 3.33301 -81.666 10 -108.999c10.667 -44.667 29.334 -67 56.001 -67c12.667 0 27.667 9 45 27c50 52 77 79 81 81v-50zM688.997 815.999c0 32 -10 57.999 -30 77.999c-26 26 -55.333 39 -88 39c-26 0 -62.667 -13.333 -110 -40
c-55.333 -31.333 -83 -62.666 -83 -93.999v-252h118c24 0 60.333 28 109 84c56 64 84 125.667 84 185zM251.997 504.998l0.000976562 135.002c-32.667 -26.667 -64.667 -80 -96 -160c-25.333 -64.667 -47.333 -137.334 -66 -218.001c-16 -69.333 -24 -117.333 -24 -144
c0 -18.667 3 -34.667 9 -48s14.667 -20 26 -20c24 0 49 37.333 75 112c19.333 54.667 37.666 125.667 54.999 213c14 69.333 21 112.666 21 129.999z" />
    <glyph glyph-name="S" unicode="S" horiz-adv-x="675" 
d="M675 300c0 -86.667 -36.9971 -159.334 -110.997 -218.001c-68.667 -54.667 -148.334 -82 -239.001 -82c-52.667 0 -98.667 10.667 -138 32c-19.333 10.667 -35.333 16 -48 16c-10 0 -27.5 -16.167 -52.5 -48.5s-45.833 -48.5 -62.5 -48.5h-24v32
c13.333 7.33301 30.333 21.666 51 42.999c25.333 25.333 38 43.666 38 54.999c-14.667 22.667 -25.334 41.334 -32.001 56.001c-22 44.667 -33 83 -33 115c0 60.667 15.667 112 47 154c36 48.667 85.333 73 148 73c24.667 0 45 -3.16699 61 -9.5s28.333 -19.833 37 -40.5
l-171 -77c-48.667 -37.333 -73 -81.666 -73 -132.999c0 -8.66699 4 -21 12 -37c10.667 -20.667 25.667 -40.667 45 -60c26.667 17.333 66.667 59 120 125c46 56.667 90.333 115.834 133 177.501s64 95.834 64 102.501c-14.667 33.333 -25.334 59.666 -32.001 78.999
c-21.333 58.667 -32 103 -32 133v74c0 47.333 16.667 90.333 50 129s68 58 104 58c28 0 53 -10.667 75 -32c25.333 -24.667 38 -57.667 38 -99c0 -31.333 -10 -71 -30 -119l-68 -158c32 -51.333 60.5 -99.333 85.5 -144s37.5 -94 37.5 -148zM578.003 804l0.000976562 74
c0 18 -6.66699 33.333 -20 46s-26 19 -38 19c-17.333 0 -32 -9.33301 -44 -28c-14 -22.667 -23.667 -35 -29 -37v-115c16.667 -8 27.667 -25.833 33 -53.5s18.666 -45.167 39.999 -52.5c17.333 28.667 31.333 55.167 42 79.5s16 46.833 16 67.5zM520.004 235l0.00195312 65
c0 14 -3.66699 33 -11 57c-3.33301 10 -16 45 -38 105l-70 -91l-132 -172c-48.667 -62 -78.334 -98.667 -89.001 -110c26 -14 49.333 -24.333 70 -31s40.667 -10 60 -10c51.333 0 99.166 18.667 143.499 56s66.5 81 66.5 131z" />
    <glyph glyph-name="T" unicode="T" horiz-adv-x="781" 
d="M781 919c-20 -24.667 -34.9971 -39.001 -44.9971 -43.001s-30.333 -6 -61 -6c0 -18 -6.33301 -45.667 -19 -83l-38 -112v-301c0 -95.333 -29 -179 -87 -251c-66 -82 -153.667 -123 -263 -123c-67.333 0 -127.333 16.333 -180 49c-58.667 36.667 -88 82.667 -88 138
c0 31.333 12 58.166 36 80.499s47.333 33.5 70 33.5c16 0 32.167 -5.5 48.5 -16.5s24.5 -21.833 24.5 -32.5c-14.667 -16.667 -27.334 -34 -38.001 -52c-12.667 -21.333 -19 -44.666 -19 -69.999c0 -24.667 13.667 -45.667 41 -63s59.666 -26 96.999 -26
c88 0 147 49.333 177 148l59 331c30.667 150 85 264 163 342c-14.667 14 -61.167 33.667 -139.5 59s-132.166 38 -161.499 38c-38.667 0 -73.667 -11 -105 -33c-38.667 -27.333 -58 -65 -58 -113c0 -46 15.667 -79 47 -99c23.333 -14.667 54.666 -22 93.999 -22
c17.333 0 31.666 0.833008 42.999 2.5s20.666 3.16699 27.999 4.5v-24c-24 -30.667 -51 -52.667 -81 -66c-23.333 -10.667 -48 -16 -74 -16c-47.333 0 -87.666 17.333 -120.999 52s-50 74.334 -50 119.001c0 62.667 23.667 114 71 154c34 28.667 79.667 50.667 137 66l85 16
l309 -41c17.333 3.33301 34.5 7.83301 51.5 13.5s32.5 9.5 46.5 11.5v-65z" />
    <glyph glyph-name="U" unicode="U" horiz-adv-x="1000" 
d="M1000 163c-36.667 -52 -64.332 -86.333 -82.999 -103c-32.667 -29.333 -70 -44 -112 -44c-45.333 0 -77 17.667 -95 53c-12.667 25.333 -19 62 -19 110h-24l-63 -97c-46.667 -54.667 -99 -82 -157 -82c-44.667 0 -81.334 21 -110.001 63c-24 34.667 -36 70.667 -36 108
c0 27.333 14 86 42 176l79.5 258c27 89.333 40.5 156 40.5 200c0 58.667 -16.667 99.667 -50 123c-22 15.333 -51.333 23 -88 23c-66.667 0 -124.667 -25 -174 -75c-46.667 -47.333 -70 -98 -70 -152c0 -34 10.833 -61.5 32.5 -82.5s48.834 -31.5 81.501 -31.5
c24.667 0 45.5 8.16699 62.5 24.5s28.833 24.5 35.5 24.5s12.334 -4 17.001 -12s7 -17.667 7 -29c0 -27.333 -15 -55 -45 -83c-34 -31.333 -73.333 -47 -118 -47c-42.667 0 -80.334 18.333 -113.001 55c-27.333 30.667 -41 58.334 -41 83.001v81
c0 75.333 43.667 144 131 206c82 58 165.667 87 251 87c59.333 0 111.333 -23.667 156 -71c36.667 -39.333 55 -72.666 55 -99.999v-81l-178 -650c3.33301 -14.667 8.66602 -26.5 15.999 -35.5s18 -13.5 32 -13.5c82 0 149 67.333 201 202l109 375
c41.333 135.333 90 203 146 203c8 0 15.333 -2.5 22 -7.5s10 -13.167 10 -24.5c-1.33301 0 -14.666 -44.667 -39.999 -134c-30 -104.667 -54.667 -200.334 -74 -287.001c-26.667 -118.667 -40 -206 -40 -262c0 -13.333 3.66699 -24.833 11 -34.5s17 -14.5 29 -14.5
c21.333 0 48.333 19.667 81 59c37.333 45.333 64.666 71.666 81.999 78.999v-40z" />
    <glyph glyph-name="V" unicode="V" horiz-adv-x="953" 
d="M951 589c-5.33301 -52 -23.668 -119.999 -55.001 -203.999c-39.333 -106 -85 -192 -137 -258c-66.667 -84.667 -137 -127 -211 -127c-36 0 -71 15.667 -105 47c-42.667 39.333 -64 91 -64 155v121l105 500c0 48.667 -14.333 83.334 -43 104.001
c-22.667 16.667 -54.334 25 -95.001 25c-67.333 0 -124 -28.333 -170 -85c-42 -52 -63 -109.667 -63 -173c0 -30.667 10.333 -56.667 31 -78c17.333 -18 39 -27 65 -27c20 0 39.667 6 59 18c27.333 16.667 48 42.667 62 78l10.5 -10.5
c3.66699 -3.66699 5.5 -8.16699 5.5 -13.5c0 -45.333 -14.667 -85.666 -44 -120.999c-35.333 -42.667 -82.333 -64 -141 -64c-51.333 0 -93 26 -125 78c-24 39.333 -36 75 -36 107c0 95.333 46 178.333 138 249c78 60 150.333 90 217 90c64.667 0 121 -19.5 169 -58.5
s72 -86.833 72 -143.5v-121l-112 -540c4 -36 10 -59 18 -69c10.667 -13.333 31.334 -20 62.001 -20c64.667 0 122 36.667 172 110c40.667 60 73 138 97 234c20 80 30 151 30 213c0 84.667 -16.667 140.667 -50 168c-15.333 12.667 -23 26.667 -23 42
c0 20 10.333 39.667 31 59s37.334 29 50.001 29c20.667 0 39.167 -15.333 55.5 -46s24.5 -74.334 24.5 -131.001c0 -12.667 0.166992 -26.667 0.5 -42s0.833008 -32.333 1.5 -51v-16c0 -4.66699 -0.333008 -9.83398 -1 -15.501s-1 -9.83398 -1 -12.501z" />
    <glyph glyph-name="W" unicode="W" horiz-adv-x="1139" 
d="M1141 727c0 -20.667 -10.332 -52.6699 -30.999 -96.0029l-63 -131c-26.667 -58.667 -45 -109.667 -55 -153c-20 -86.667 -36.667 -166.667 -50 -240c-10 -54.667 -16.667 -86.167 -20 -94.5s-13 -12.5 -29 -12.5c-18 0 -40 18 -66 54c-33.333 46 -50 99.667 -50 161v140
c0 4.66699 5.83301 43.834 17.5 117.501s19.5 117.167 23.5 130.5v33c-14.667 -8.66699 -35.334 -36.334 -62.001 -83.001c-48 -84 -88 -151 -120 -201c-70.667 -109.333 -156 -226.666 -256 -351.999h-49v41c29.333 50 64.166 137.333 104.499 262s60.5 213.667 60.5 267
v157c0 56 -17 98.333 -51 127c-30.667 26 -71.667 39 -123 39c-65.333 0 -121.666 -28.667 -168.999 -86c-41.333 -50 -62 -101.333 -62 -154c0 -33.333 11 -61 33 -83s49.667 -33 83 -33c34.667 0 63.334 14 86.001 42c28.667 34.667 46.667 53.667 54 57
c2.66699 -18.667 4 -32 4 -40c0 -4.66699 -0.666992 -8 -2 -10s-2 -4.33301 -2 -7c0 -55.333 -17 -97.666 -51 -126.999c-30 -26 -68 -39 -114 -39c-53.333 0 -97 19.333 -131 58s-51 85.667 -51 141c0 28.667 12.667 67.667 38 117c32 62.667 73 113.667 123 153
c64.667 51.333 137.667 77 219 77c67.333 0 126.833 -21.5 178.5 -64.5s77.5 -93.167 77.5 -150.5v-132c0 -5.33301 -7.5 -39 -22.5 -101s-23.833 -97.333 -26.5 -106v-25c28 13.333 69.667 71.666 125 174.999c29.333 54.667 75.333 149 138 283c48 102 76 156 84 162h33
v-74l-66 -480v-198c14.667 16 34.667 60.333 60 133c40 116.667 63.333 183.334 70 200.001c29.333 74.667 57.666 123.334 84.999 146.001h25zM818.001 644.997v16v-16z" />
    <glyph glyph-name="X" unicode="X" horiz-adv-x="1271" 
d="M1156 852c0 -13.333 -6.99805 -29.001 -20.998 -47.001c-18 -23.333 -38.333 -35 -61 -35c-19.333 0 -33.833 4.83301 -43.5 14.5s-14.5 21.5 -14.5 35.5c0 6.66699 2.33301 15 7 25c12 26.667 18 42.667 18 48c0 10.667 -4.5 20.167 -13.5 28.5s-20.833 12.5 -35.5 12.5
c-37.333 0 -81.333 -26.667 -132 -80c-53.333 -56.667 -98 -127.334 -134 -212.001c-41.333 -98.667 -62 -198 -62 -298v-98c0 -60.667 14.667 -110 44 -148s69.333 -57 120 -57c49.333 0 102 25.667 158 77c58.667 53.333 88 107 88 161v65
c0 21.333 -7.66699 39.333 -23 54c-19.333 18.667 -39 28 -59 28c-32.667 0 -60 -19.167 -82 -57.5s-33 -81.833 -33 -130.5c0 -13.333 2.66699 -29 8 -47c8.66699 -30 14 -50 16 -60c-31.333 0 -56.333 16.667 -75 50c-15.333 28 -23 57.667 -23 89
c0 56 19 104.167 57 144.5s79 60.5 123 60.5c31.333 0 59.666 -11.333 84.999 -34s38 -49.334 38 -80.001v-82c0 -79.333 -36 -147.666 -108 -204.999c-62 -49.333 -121.667 -74 -179 -74c-76.667 0 -135 23 -175 69l-103 185c-40 -76.667 -90.333 -138.167 -151 -184.5
s-125.334 -69.5 -194.001 -69.5c-52.667 0 -98.5 16.833 -137.5 50.5s-58.5 71.5 -58.5 113.5c0 65.333 30 98 90 98c15.333 0 28.666 -5.66699 39.999 -17s17 -24.666 17 -39.999c0 -5.33301 -6.83301 -15.833 -20.5 -31.5s-20.5 -35.167 -20.5 -58.5
c0 -25.333 15.333 -45 46 -59c22 -10 45 -15 69 -15c38.667 0 84.667 25.333 138 76c58.667 56 107.334 128 146.001 216c46 104.667 69 215 69 331v156c0 29.333 -11.667 58.5 -35 87.5s-50 43.5 -80 43.5h-66c-43.333 0 -87 -24.667 -131 -74s-66 -101.333 -66 -156
c0 -38.667 10.5 -70.167 31.5 -94.5s48.833 -36.5 83.5 -36.5c25.333 0 46.666 8.66699 63.999 26c14.667 14.667 29 25.334 43 32.001h24v-58c-18 -34.667 -38.667 -61.667 -62 -81c-28 -22.667 -59 -34 -93 -34c-43.333 0 -82.666 19.333 -117.999 58
c-30.667 33.333 -46 63.333 -46 90v82c0 51.333 32 111 96 179c72.667 77.333 150 116 232 116c76 0 131.333 -21 166 -63l79 -183c48.667 66.667 97.667 119.334 147 158.001c53.333 42 108.333 63 165 63c34 0 67.167 -13.333 99.5 -40s48.5 -54.334 48.5 -83.001z" />
    <glyph glyph-name="Y" unicode="Y" horiz-adv-x="865" 
d="M864 856c-16.667 -45.333 -31 -92.9961 -43 -142.996c-14 -56 -21 -117.667 -21 -185c0 -182.667 -38.667 -319 -116 -409c-68 -79.333 -162.667 -119 -284 -119c-62 0 -120.167 21.5 -174.5 64.5s-81.5 88.167 -81.5 135.5c0 22.667 8.33301 44.667 25 66
c20 25.333 43.667 38 71 38c42.667 0 64 -16 64 -48c0 -12 -8 -31 -24 -57s-24 -47 -24 -63c0 -27.333 11.833 -48.833 35.5 -64.5s57.167 -23.5 100.5 -23.5c70 0 126 27.667 168 83c30.667 40.667 54.334 96.334 71.001 167.001l25 126v24
c-34.667 -28.667 -61.334 -49.334 -80.001 -62.001c-33.333 -22.667 -68 -34 -104 -34c-30.667 0 -58.334 11 -83.001 33s-37 45.667 -37 71v88c0 14 13.333 70 40 168l40 144c0 24.667 -7.66699 45.667 -23 63c-19.333 22 -46.333 33 -81 33c-64 0 -118.333 -25 -163 -75
c-40.667 -45.333 -61 -95 -61 -149c0 -36 9.66699 -62 29 -78c14.667 -12 34.334 -18 59.001 -18c11.333 0 28.666 8 51.999 24l44 32l5 -12c2 -4.66699 3 -8.66699 3 -12c0 -32 -17.333 -62.667 -52 -92s-68 -44 -100 -44c-41.333 0 -75 12 -101 36
c-28.667 26 -43 62 -43 108c0 87.333 39 165.666 117 234.999c70 62 137.667 93 203 93c61.333 0 113 -17.333 155 -52c46 -38 69 -90 69 -156c0 -32.667 -8 -75.334 -24 -128.001c-5.33301 -18 -20.666 -63.667 -45.999 -137c-17.333 -50.667 -26 -82.334 -26 -95.001
c0 -16.667 2.33301 -27.667 7 -33s11.334 -8 20.001 -8c6 0.666992 10.333 1 13 1c42 0 82.333 24.667 121 74c25.333 32 60.666 93.667 105.999 185c57.333 114 99 193 125 237h24c1.33301 -6.66699 2 -11.334 2 -14.001c-1.33301 -10 -2 -16 -2 -18z" />
    <glyph glyph-name="Z" unicode="Z" horiz-adv-x="670" 
d="M670 362c-45.333 -25.333 -80.4961 -46.002 -105.496 -62.002s-37.5 -28 -37.5 -36c8 -9.33301 13.333 -17.666 16 -24.999c6 -14.667 9 -29 9 -43v-98c0 -48 -23 -112.333 -69 -193s-99.667 -149 -161 -205c-70.667 -64.667 -135.667 -97 -195 -97
c-36.667 0 -68.334 15 -95.001 45s-40 63.333 -40 100c0 71.333 34.333 148.333 103 231c43.333 52 107.666 113.667 192.999 185c69.333 58 104 91.333 104 100c0 14.667 -8.5 30.834 -25.5 48.501s-32.833 26.5 -47.5 26.5c-6.66699 0 -22.334 -8.33301 -47.001 -25
s-51 -25 -79 -25h-20c-12 0 -19.667 2.66699 -23 8s-5 13 -5 23c0 32.667 25.333 53.667 76 63c69.333 12.667 123.166 40 161.499 82s69.5 87 93.5 135s36 91 36 129v95c0 32.667 -13.333 61.667 -40 87c-30 28.667 -67.667 43 -113 43c-68 0 -126.667 -32 -176 -96
c-42 -54 -63 -104.667 -63 -152c0 -26 9 -48.667 27 -68s40.333 -29 67 -29c40 0 71.667 21.333 95 64l42 95h24v-56l-64 -125c-33.333 -49.333 -78.333 -74 -135 -74c-38 0 -70.667 11.333 -98 34c-30 24.667 -45 56 -45 94c0 73.333 23.667 139.666 71 198.999
c39.333 48.667 90.333 88.667 153 120c54 26.667 101.667 40 143 40c71.333 0 130.666 -19 177.999 -57c51.333 -41.333 77 -96.666 77 -165.999c0 -62.667 -19.333 -123 -58 -181c-27.333 -40.667 -65.333 -82.334 -114 -125.001c-51.333 -45.333 -79 -70.666 -83 -75.999
c6.66699 -6 25.667 -20 57 -42l47 -33l35 16c50.667 25.333 86.334 45 107.001 59h24v-33zM392.004 139.998c2.66699 2.66699 3.99902 6.66895 3.99902 12.002v9c-2 6.66699 -3.33301 12 -4 16c-93.333 -80.667 -168.333 -160 -225 -238
c-41.333 -56.667 -70.666 -109.334 -87.999 -158.001c-10 -28 -15 -49.667 -15 -65c0 -12.667 5.33301 -26 16 -40c13.333 -16.667 29 -25 47 -25c61.333 0 121.333 56.667 180 170c56.667 109.333 85 215.666 85 318.999z" />
    <glyph glyph-name="bracketleft" unicode="[" 
 />
    <glyph glyph-name="backslash" unicode="\" horiz-adv-x="282" 
d="M293 -86c-39.333 14.667 -82 118.334 -128 311.001c-31.333 131.333 -65 309 -101 533c-32 197.333 -49.333 298.333 -52 303l-8 43l30 5c42 -26 80 -130.333 114 -313c13.333 -70.667 37.333 -239.667 72 -507c24.667 -188.667 46 -296.334 64 -323.001z" />
    <glyph glyph-name="bracketright" unicode="]" 
 />
    <glyph glyph-name="asciicircum" unicode="^" 
 />
    <glyph glyph-name="underscore" unicode="_" 
 />
    <glyph glyph-name="grave" unicode="`" 
 />
    <glyph glyph-name="a" unicode="a" horiz-adv-x="610" 
d="M621 184c-8 -38.667 -28.9971 -77 -62.9971 -115c-40.667 -46 -83.667 -69 -129 -69c-26 0 -49 13 -69 39c-10.667 14 -19.667 30.333 -27 49h-27c-16.667 -24.667 -32.334 -42.667 -47.001 -54c-30 -22.667 -66.667 -34 -110 -34c-46 -0 -83 18.333 -111 55
c-25.333 33.333 -38 73.333 -38 120c0 76.667 34 146 102 208c59.333 54 112.666 81 159.999 81c20.667 0 42 -6 64 -18s38.667 -26.333 50 -43c13.333 12 23.666 20.667 30.999 26c23.333 17.333 42.333 26 57 26c12 0 19.333 -3.33301 22 -10s4 -18 4 -34
c0 -2.66699 -8.83301 -40 -26.5 -112s-26.5 -119 -26.5 -141v-106c52.667 5.33301 90 27.5 112 66.5s46 60.833 72 65.5zM350.003 333c0 22 -5.5 39.166 -16.5 51.499s-28.833 18.5 -53.5 18.5c-31.333 0 -60.666 -25 -87.999 -75c-18.667 -34.667 -36 -81 -52 -139l-18 -75
c0 -13.333 8.66699 -27.666 26 -42.999c5.33301 -4.66699 14.333 -11 27 -19c45.333 0 86.666 33.667 123.999 101c34 61.333 51 121.333 51 180z" />
    <glyph glyph-name="b" unicode="b" horiz-adv-x="459" 
d="M482 188c-18 -25.333 -39.002 -41.668 -63.002 -49.001l-89 -14c-20.667 -38 -44.5 -68.333 -71.5 -91s-62.5 -34 -106.5 -34c-42 0 -77.833 13.833 -107.5 41.5s-44.5 61.5 -44.5 101.5v152c0 22 12.333 84.333 37 187c32.667 137.333 71 249.666 115 336.999
c60 120.667 125.333 181 196 181c26 0 47.5 -10.167 64.5 -30.5s25.5 -45.833 25.5 -76.5c0 -58.667 -28.333 -135.667 -85 -231l-160 -251c-57.333 -98 -86 -178.333 -86 -241v-81c0 -24.667 7 -40.667 21 -48c6 -3.33301 17 -5 33 -5c14.667 0 39 11 73 33
c40.667 26 61 50.667 61 74c-14 23.333 -24.333 41 -31 53c-21.333 37.333 -32 58.333 -32 63v80c0 19.333 10 44 30 74c22.667 34 45.334 51 68.001 51c12.667 0 25.667 -7.33301 39 -22c16 -17.333 24 -36.666 24 -57.999v-71c-1.33301 -8 -2.33301 -14.667 -3 -20
c-6 -31.333 -14 -57.666 -24 -78.999v-35h54c6.66699 3.33301 13.834 6.5 21.501 9.5s13.167 4.5 16.5 4.5c2 0 5.5 -0.833008 10.5 -2.5s9.5 -2.5 13.5 -2.5zM374.998 892.998l-0.000976562 12c0 14 -3.33301 24.333 -10 31s-15.334 10 -26.001 10
c-39.333 0 -74.666 -49.667 -105.999 -149l-72 -351c12 12.667 34 44.667 66 96c40.667 65.333 73.334 125 98.001 179c33.333 72.667 50 130 50 172zM347.997 320.998c0 6.66699 -3.33301 13.332 -10 19.999c-10.667 10.667 -19 22 -25 34h-36
c2.66699 -4.66699 4.5 -10 5.5 -16s1.5 -9.33301 1.5 -10c0 -4 -1.16699 -10 -3.5 -18s-3.5 -14 -3.5 -18c0 -26 1.66699 -44.667 5 -56c6.66699 -21.333 20 -35.666 40 -42.999c2 8 6.83301 25.333 14.5 52s11.5 45 11.5 55z" />
    <glyph glyph-name="c" unicode="c" horiz-adv-x="455" 
d="M455 161c-19.333 -36 -47.334 -69.999 -84.001 -101.999c-46 -39.333 -89.667 -59 -131 -59h-80c-31.333 0 -63.666 14.667 -96.999 44c-42 37.333 -63 85.333 -63 144c-0 53.333 24.333 111 73 173c54 68.667 112.667 103 176 103h72c15.333 0 34.666 -9 57.999 -27
c26.667 -20.667 40 -41.334 40 -62.001c0 -16.667 -5.66699 -32 -17 -46c-14 -16.667 -32 -25 -54 -25c-26 0 -43.167 6.16699 -51.5 18.5s-12.5 30.166 -12.5 53.499v21c0 7.33301 0.333008 15 1 23h-45c-38.667 -39.333 -65.667 -77.666 -81 -114.999
c-17.333 -41.333 -26 -92.333 -26 -153c0 -36.667 7.33301 -65.167 22 -85.5s37.334 -30.5 68.001 -30.5c35.333 0 77.333 22 126 66c66 60 101.333 91.333 106 94v-35z" />
    <glyph glyph-name="d" unicode="d" horiz-adv-x="619" 
d="M624 187c-6.66699 -45.333 -25.666 -85.3369 -56.999 -120.004c-34.667 -38.667 -75 -58 -121 -58c-30.667 0 -56 12.667 -76 38c-16 20 -29.667 34.333 -41 43c-28 -28.667 -48.333 -47.667 -61 -57c-30 -22 -69 -33 -117 -33c-20 2.66699 -35.667 6.33398 -47 11.001
c-69.333 27.333 -104 83 -104 167c0 77.333 29 145 87 203c55.333 55.333 115.666 83 180.999 83c23.333 0 40.333 -2.16699 51 -6.5s26 -14.166 46 -29.499c3.33301 2 6 4.66699 8 8l1 1c2.66699 -3.33301 8.66699 -6.33301 18 -9c0 79.333 11.667 163.333 35 252
c28 105.333 60.667 158 98 158c30 0 46 -1 48 -3c1.33301 -9.33301 3.33301 -20.666 6 -33.999l-142 -702c2.66699 -5.33301 4 -11 4 -17c0 -5.33301 -1.33301 -14.666 -4 -27.999h54c24 19.333 46 43.333 66 72c16.667 24 39 44.333 67 61zM347.001 267.996l0.000976562 88
c0 18 -6.83301 33 -20.5 45s-26.834 18 -39.501 18c-46.667 0 -85.667 -40.667 -117 -122c-24.667 -63.333 -37 -118 -37 -164c0 -36.667 2 -57.667 6 -63c10 -4.66699 20 -13 30 -25c40 12.667 69.667 26 89 40c59.333 42.667 89 103.667 89 183z" />
    <glyph glyph-name="e" unicode="e" horiz-adv-x="499" 
d="M499 140c-30.667 -31.333 -55.999 -54.668 -75.999 -70.001c-60 -46.667 -113.333 -70 -160 -70h-88c-34.667 0 -70.667 16.667 -108 50c-44.667 40 -67 87.667 -67 143c0 24 10.667 55.667 32 95c26.667 48.667 60 88 100 118c52 38.667 110 58 174 58
c49.333 0 84.333 -10 105 -30c17.333 -16.667 26 -41.667 26 -75c0 -50 -25.667 -93.333 -77 -130c-26.667 -19.333 -74.334 -43.333 -143.001 -72c-51.333 -21.333 -77 -38.666 -77 -51.999s9.33301 -26.833 28 -40.5s41.334 -20.5 68.001 -20.5
c51.333 0 93.666 11 126.999 33l136 107v-44zM324.001 358.998c0 20.667 -3.33301 34.666 -10 41.999s-18 11 -34 11c-32 0 -57.333 -16.333 -76 -49l-55 -100v-79c38.667 14.667 67.667 28.334 87 41.001c58.667 38 88 82.667 88 134z" />
    <glyph glyph-name="f" unicode="f" horiz-adv-x="391" 
d="M411 861c0 -71.333 -24.667 -160.667 -74 -268c-30.667 -66 -77 -150 -139 -252c-50 -82 -75 -126.667 -75 -134l42 -66c29.333 -44 47.666 -66 54.999 -66c12.667 0 42.5 23.5 89.5 70.5s75.5 72.167 85.5 75.5c-23.333 -78.667 -69.666 -133 -138.999 -163
c-28.667 -12 -43 -25.667 -43 -41c5.33301 -14.667 9 -27 11 -37c7.33301 -31.333 11 -63 11 -95v-94c0 -36 -10.333 -69 -31 -99c-24.667 -36 -56 -54 -94 -54c-32 0 -59 13.667 -81 41c-19.333 24 -29 49.333 -29 76v406c0 24.667 6.66699 41 20 49s21.333 19 24 33
l18 198c18.667 150 44.667 270.667 78 362c48 130.667 108 196 180 196c26 0 47.667 -13 65 -39s26 -59 26 -99zM359 881.999c0 10.667 -2.99902 22.667 -8.99902 36c-8 17.333 -18 26 -30 26c-36 0 -67.667 -47.333 -95 -142l-67 -338v-34
c51.333 62 93.666 128 126.999 198c26 53.333 45.667 107.333 59 162c10 40 15 70.667 15 92zM123.001 81.999c10 19.333 14.999 30.332 14.999 32.999c0 1.33301 -0.666992 2 -2 2c-7.33301 0.666992 -11.666 1.33398 -12.999 2.00098v-37zM191 -185.002
l0.000976562 172.001c-8.66699 5.33301 -14.334 12.666 -17.001 21.999s-11.667 19 -27 29h-24c-12 -34 -21 -73 -27 -117s-9 -94.333 -9 -151c0 -8.66699 -0.333008 -17.167 -1 -25.5l-2 -25.5c0 -14 2.33301 -24.833 7 -32.5s14 -11.5 28 -11.5c20.667 0 35.667 22 45 66
s18.333 68.667 27 74z" />
    <glyph glyph-name="g" unicode="g" horiz-adv-x="508" 
d="M527 135c-10 -42 -26.668 -71.333 -50.001 -88c-41.333 -30 -63.333 -46.667 -66 -50c-27.333 -31.333 -48.833 -82.333 -64.5 -153s-43.5 -129.334 -83.5 -176.001s-81 -70 -123 -70c-22 0 -41.667 7.66699 -59 23s-26 31 -26 47v57c0 39.333 20 78.333 60 117l112 90
c40 32.667 60 60.667 60 84c0 10.667 -2.66699 20.334 -8 29.001l-67.5 -30.5c-22.333 -9.66699 -43.5 -14.5 -63.5 -14.5c-41.333 -0 -76.333 14.333 -105 43s-43 66.334 -43 113.001c0 89.333 34.667 165.666 104 228.999c57.333 52 110 78 158 78
c22.667 0 45.334 -8.66699 68.001 -26s37.667 -26 45 -26c4.66699 0 11 -9.33301 19 -28s19.667 -28 35 -28c8 0 13.667 -2.66699 17 -8s5 -12 5 -20s-7 -43.333 -21 -106c-16 -70.667 -28 -111 -36 -121v-57c16 0 32.667 6 50 18c22.667 16 44 40.667 64 74h19z
M347.999 332c0 14 -7.00098 30.6689 -21.001 50.002s-26.667 29 -38 29c-43.333 0 -81.666 -36.667 -114.999 -110c-28.667 -62.667 -43 -119.334 -43 -170.001c0 -7.33301 -0.166992 -14.333 -0.5 -21s-0.5 -13 -0.5 -19c0 -14.667 2 -24.834 6 -30.501
s13.667 -8.5 29 -8.5c55.333 0 102 41 140 123c28.667 62 43 114.333 43 157zM266.998 -118.998l-0.000976562 27.998h-21l-94 -96c-32 -37.333 -48 -75.666 -48 -114.999c0 -15.333 2.83301 -28.666 8.5 -39.999s14.834 -17 27.501 -17c32 0 60.333 34.333 85 103z" />
    <glyph glyph-name="h" unicode="h" horiz-adv-x="590" 
d="M625 134c-42.667 -60 -77.499 -98.832 -104.499 -116.499s-57.5 -26.5 -91.5 -26.5c-38 0 -64.667 15.333 -80 46c-12 23.333 -18 55.666 -18 96.999c0 13.333 5.66699 47.666 17 102.999s23.333 98.333 36 129v27c-57.333 0 -104.333 -33.667 -141 -101l-83 -189
c-34 -68.667 -75.333 -103 -124 -103c-13.333 0 -22.666 6 -27.999 18s-8 26.667 -8 44c0 9.33301 3.66699 38 11 86c11.333 73.333 24 144.333 38 213c19.333 92.667 44.666 198.334 75.999 317.001c14.667 55.333 28.334 99 41.001 131c22 54.667 46.333 96.667 73 126
c34 37.333 73.333 56 118 56c33.333 0 58.666 -12.333 75.999 -37c15.333 -21.333 23 -47.666 23 -78.999c0 -52.667 -23 -121 -69 -205c-18 -32.667 -64.667 -107 -140 -223c-56.667 -86.667 -91.334 -149.334 -104.001 -188.001v-36c18 12 55.667 58.333 113 139
c44 62 89.667 93 137 93c30 0 53 -17.667 69 -53c13.333 -29.333 20 -62.333 20 -99c0 -20 -4.33301 -48.667 -13 -86c-26.667 -114 -40 -171.333 -40 -172h44c26.667 13.333 47.667 28 63 44c20.667 21.333 38.667 51.333 54 90h35v-45zM402.001 893.001
c0 6 -5.50098 14.833 -16.501 26.5s-20.5 17.5 -28.5 17.5c-32 0 -62.667 -40.667 -92 -122c-21.333 -60 -40.666 -136 -57.999 -228l-19 -123c0 -16 2.66699 -24 8 -24c9.33301 0 27 24.667 53 74c21.333 41.333 42.666 87.333 63.999 138
c14.667 34 34.334 85.333 59.001 154c20 55.333 30 84.333 30 87z" />
    <glyph glyph-name="i" unicode="i" horiz-adv-x="303" 
d="M231 687c0 -22 -10.666 -40.333 -31.999 -55c-16 -11.333 -29 -17 -39 -17c-18 0 -34.333 6.66699 -49 20s-22 27.666 -22 42.999c0 16.667 7.33301 33.334 22 50.001c17.333 19.333 36.666 29 57.999 29c26 0 43.667 -8.33301 53 -25c6 -10.667 9 -25.667 9 -45z
M311.001 170c0 -28.667 -18.6699 -62.666 -56.0029 -101.999c-43.333 -45.333 -89.666 -68 -138.999 -68c-36 0 -65.667 17.333 -89 52c-18 26.667 -27 51 -27 73v71c10.667 60 20.334 104.667 29.001 134c26.667 89.333 58.334 134 95.001 134c18.667 0 31 -3 37 -9
s9 -15.667 9 -29c-0.666992 -10.667 -1 -19 -1 -25c0 -12.667 -8.83301 -61.834 -26.5 -147.501s-26.5 -140.167 -26.5 -163.5c0 -24 11.667 -36 35 -36c14 0 32.667 12.667 56 38l96 104c3.33301 -2.66699 5.33301 -4.66699 6 -6c1.33301 -2 2 -8.66699 2 -20z" />
    <glyph glyph-name="j" unicode="j" horiz-adv-x="425" 
d="M312 697c0 -24.667 -6.99902 -45.001 -20.999 -61.001s-29 -24 -45 -24c-22.667 0 -39.334 7 -50.001 21s-16 32.333 -16 55c0 27.333 6 48.333 18 63s31.333 22 58 22c19.333 0 34 -8 44 -24c8 -13.333 12 -30.666 12 -51.999zM425.001 271.999
c-71.333 -72 -118.665 -122.005 -141.998 -150.005c-55.333 -67.333 -83 -140 -83 -218v-97c0 -35.333 -10.333 -74.666 -31 -117.999c-25.333 -52.667 -55.333 -79 -90 -79c-14.667 0 -29 7.66699 -43 23c-16.667 18 -25 38 -25 60v75c0 20 10.333 57.333 31 112l71 175
c1.33301 42.667 2.66602 75.667 3.99902 99c4 70.667 9 119.334 15 146.001c-25.333 -5.33301 -47.333 -28.666 -66 -69.999s-40.667 -62 -66 -62v38c0 29.333 26.333 77.333 79 144c58.667 74 111 111 157 111c20 0 33.333 -3.66699 40 -11
c4.66699 -5.33301 7 -15.666 7 -30.999v-15c-2.66699 -28 -5 -49.667 -7 -65c-7.33301 -47.333 -17.333 -79 -30 -95v-29c8.66699 0.666992 14.667 1 18 1c4 0 7.33301 -0.333008 10 -1c13.333 2.66699 39.333 22.667 78 60c21.333 20.667 45.666 35.334 72.999 44.001v-47z
M102.002 -337.006c-2.66699 4.66699 -4.66699 13.333 -6 26s-2 27 -2 43c0 24.667 0.833008 49.167 2.5 73.5s3.5 49.5 5.5 75.5c-8.66699 -8.66699 -19.834 -33.667 -33.501 -75s-20.5 -66.333 -20.5 -75c0 -28.667 2.33301 -46.5 7 -53.5s20.334 -11.833 47.001 -14.5z
" />
    <glyph glyph-name="k" unicode="k" horiz-adv-x="538" 
d="M538 144c-37.333 -52.667 -67 -88.666 -89 -107.999c-34.667 -30 -74 -45 -118 -45c-30.667 0 -51.834 9.16699 -63.501 27.5s-17.5 42.166 -17.5 71.499c0 14 2 34 6 60s6 43.333 6 52c0 15.333 -4 23 -12 23c-49.333 0 -90 -29.667 -122 -89
c-43.333 -80 -71.666 -125.333 -84.999 -136h-81v99c4 12 20.667 108 50 288s61.333 314.667 96 404c52 133.333 117.333 200 196 200c36.667 0 64.667 -14 84 -42c16 -23.333 24 -51.333 24 -84c0 -52 -26 -121 -78 -207l-146 -222c-52.667 -84 -79 -147.667 -79 -191
c0 -13.333 2 -26 6 -38l50 74c34.667 46.667 68 83.667 100 111c46 38.667 89 58 129 58c20.667 0 34.334 -1.66699 41.001 -5c14.667 -7.33301 22 -23.666 22 -48.999c0 -36 -18 -54 -54 -54c-14.667 0 -29.5 4.5 -44.5 13.5s-27.167 13.5 -36.5 13.5
c-8 0 -21.333 -6.33301 -40 -19c-25.333 -17.333 -48 -41 -68 -71c8 -6 16.333 -11.667 25 -17c5.33301 -3.33301 8.33301 -5 9 -5c0 2 1.33301 4 4 6c6 4.66699 17.333 7 34 7c25.333 0 48.166 -9.83301 68.499 -29.5s30.5 -42.834 30.5 -69.501
c0 -4 -4.5 -16.5 -13.5 -37.5s-13.5 -44.5 -13.5 -70.5c0 -20 4.66699 -30 14 -30c10.667 0 29 13.667 55 41c64 66.667 101 102 111 106v-36zM340 874.001v17.001c0 14 -1.66699 25.167 -5 33.5s-10.666 12.5 -21.999 12.5c-38 0 -68.667 -31.667 -92 -95
c-11.333 -30.667 -26 -95 -44 -193c-14.667 -80.667 -29.334 -131.667 -44.001 -153v-64l108 171c34 54.667 58 99.667 72 135c18 45.333 27 90.666 27 135.999z" />
    <glyph glyph-name="l" unicode="l" horiz-adv-x="340" 
d="M340 151c-40.667 -57.333 -79.3311 -97.667 -115.998 -121c-30.667 -20 -61.334 -30 -92.001 -30c-44 0 -77.667 15.667 -101 47c-20.667 27.333 -31 62 -31 104v160c0 61.333 12.333 145.333 37 252c28 120.667 60.333 219 97 295c46 94.667 92.667 142 140 142
c8 0 17 -3 27 -9c26 -15.333 39 -37.333 39 -66v-151c0 -61.333 -19.333 -130.666 -58 -207.999l-110 -199c-39.333 -78.667 -59 -147.667 -59 -207c3.33301 -25.333 6.33301 -44 9 -56c9.33301 -38 22 -57 38 -57c27.333 0 61.666 25 102.999 75
c28 33.333 53.667 58.666 77 75.999v-47zM302.003 773.999v169c-6 -2 -10.333 -3 -13 -3c-5.33301 2 -10.333 3 -15 3c-22 0 -44.333 -45.667 -67 -137c-17.333 -68 -33.333 -154.333 -48 -259c-12 -84 -18 -134.333 -18 -151c48 96 92.333 201 133 315
c14 38.667 23.333 59.667 28 63z" />
    <glyph glyph-name="m" unicode="m" horiz-adv-x="926" 
d="M926 154c-31.333 -52.667 -60.6641 -91.332 -87.9971 -115.999c-34.667 -31.333 -71.334 -47 -110.001 -47c-21.333 0 -42 11.667 -62 35c-24.667 28.667 -37 65 -37 109c0 32 6.83301 70.5 20.5 115.5l42.5 137.5c0 10 -3.16699 17 -9.5 21s-14.833 6 -25.5 6
c-30 0 -63.333 -29 -100 -87c-24.667 -39.333 -54.334 -98.333 -89.001 -177c-38 -86 -59.333 -133.333 -64 -142h-90v90c8 25.333 16.5 71 25.5 137l19.5 143v27h-37c-81.333 -82 -137.666 -160 -168.999 -234l-39 -131c-10 -27.333 -36.667 -41 -80 -41
c-10.667 0 -19.334 3.5 -26.001 10.5s-10 20.167 -10 39.5v22c0 86.667 8.33301 166 25 238c23.333 100 57 150 101 150c14 0 25.167 -3.5 33.5 -10.5s12.5 -15.833 12.5 -26.5l-37 -134v-37c22 11.333 46.333 36 73 74c34 49.333 56.667 79.333 68 90
c30 29.333 64.333 44 103 44c28 0 48 -10 60 -30c10 -16.667 15 -40.334 15 -71.001c0 -18 -1 -35.667 -3 -53v-54l120 147c34.667 40.667 72.667 61 114 61c31.333 0 57.666 -14.333 78.999 -43c19.333 -26.667 29 -57.667 29 -93c0 -30 -6.33301 -65.667 -19 -107
l-44 -136c0 -24 12.333 -36 37 -36c16 0 35 12 57 36c62 68 96.667 104 104 108v-35z" />
    <glyph glyph-name="n" unicode="n" horiz-adv-x="595" 
d="M622 189c-8.66699 -60 -37.665 -109.67 -86.998 -149.003c-41.333 -32.667 -78.666 -49 -111.999 -49c-26.667 0 -49.834 12.833 -69.501 38.5s-29.5 57.834 -29.5 96.501c0 48 10.667 106 32 174c6.66699 22.667 17.334 52 32.001 88c0 6 -4 12 -12 18s-16.333 9 -25 9
c-38.667 0 -78.334 -35.667 -119.001 -107l-98 -200c-36.667 -72 -69.334 -108 -98.001 -108c-10.667 0 -19.334 3 -26.001 9s-10 17.667 -10 35v20c0 77.333 8.66699 155 26 233c24 108.667 57.333 163 100 163c14 0 23.667 -3 29 -9s8 -15.333 8 -28
c0 -7.33301 -7.33301 -40.666 -22 -99.999c-7.33301 -30 -11 -54.333 -11 -73c0 -16 1.66699 -30 5 -42c6.66699 16 18.667 38.667 36 68c28.667 49.333 58 89.333 88 120c42 42.667 82 64 120 64c20 0 41.5 -12.167 64.5 -36.5s34.5 -45.166 34.5 -62.499v-82l-55 -188v-46
h37c34.667 18 63 41.667 85 71l50 73h27z" />
    <glyph glyph-name="o" unicode="o" horiz-adv-x="586" 
d="M586 158l-82 -93c-46 -43.333 -94.333 -65 -145 -65h-175c-36 -0 -69.667 13.333 -101 40l-83 100v96c-0 44 34.333 96.667 103 158c52 46.667 111 70 177 70c60.667 0 108.667 -18.667 144 -56c32.667 -34.667 49 -80 49 -136c0 -36.667 -8.66699 -72 -26 -106
s-46.666 -71.667 -87.999 -113h35c69.333 36 112.666 64.333 129.999 85c31.333 38.667 52 60 62 64v-44zM359 254l0.00195312 70c0 22 -8.33301 42.167 -25 60.5s-37.334 27.5 -62.001 27.5c-36 0 -68.5 -23 -97.5 -69s-43.5 -93 -43.5 -141c0 -40.667 5 -73.667 15 -99
c13.333 -33.333 34.666 -50 63.999 -50c41.333 0 77.333 23.667 108 71c27.333 42.667 41 86 41 130z" />
    <glyph glyph-name="p" unicode="p" horiz-adv-x="592" 
d="M592 161c-25.333 -43.333 -57.666 -80.0049 -96.999 -110.005c-44.667 -34 -89.667 -51 -135 -51h-80c-36.667 0 -70.334 15.667 -101.001 47c-28 28.667 -42 57.334 -42 86.001c0 13.333 3.66699 26 11 38c10 16.667 24.333 25 43 25
c11.333 0 21.666 -4.33301 30.999 -13s14 -19.334 14 -32.001c0 -6 -4 -13 -12 -21c-18.667 -19.333 -29.667 -38.666 -33 -57.999h71c38 36.667 60.667 60.334 68 71.001c20 27.333 30 57 30 89v80c0 24 -7.5 44.833 -22.5 62.5s-34.167 26.5 -57.5 26.5
c-28.667 0 -59 -19.333 -91 -58c-38 -46 -68.333 -109.333 -91 -190c-27.333 -97.333 -41 -213.333 -41 -348c0 -23.333 -0.333008 -45.666 -1 -66.999s-1.33398 -41.333 -2.00098 -60c0 -27.333 1 -50.666 3 -69.999h-98v392l12 71l33 179l44 231l21 127
c14.667 62 37.334 100 68.001 114h45v-44c0 -24 -4.66699 -55.667 -14 -95c-20.667 -87.333 -31 -136.333 -31 -147v-89c37.333 36 65.333 61.667 84 77c32.667 26.667 70.334 40 113.001 40c54.667 0 94.667 -17.333 120 -52c20 -27.333 30 -63.666 30 -108.999
c0 -56 -19 -109 -57 -159c-44.667 -46 -72.667 -76 -84 -90h52c37.333 4.66699 76 26 116 64l81 78v-35z" />
    <glyph glyph-name="q" unicode="q" horiz-adv-x="597" 
d="M597 184c-26 -50.667 -56.332 -94.334 -90.999 -131.001c-55.333 -59.333 -83 -92 -83 -98c10.667 -16 18.334 -29 23.001 -39c16 -30.667 24 -55.334 24 -74.001c0 -60.667 -13.833 -116 -41.5 -166s-60.167 -75 -97.5 -75c-22 0 -40.667 8.66699 -56 26
c-17.333 19.333 -26 45.666 -26 78.999c0 23.333 6 67.666 18 132.999s18 112.333 18 141c0 28 -4.33301 49.667 -13 65c-4.66699 -1.33301 -25.334 -11.333 -62.001 -30c-20 -10 -43 -15 -69 -15c-36 0 -68.5 13.833 -97.5 41.5s-43.5 54.834 -43.5 81.501v87
c0 58 29.5 114.833 88.5 170.5s120.167 83.5 183.5 83.5c17.333 0 34.833 -5.66699 52.5 -17l53.5 -35c5.33301 0 13.666 5.83301 24.999 17.5s20.333 20.5 27 26.5h43c2.66699 -13.333 4 -22.666 4 -27.999c-2.66699 -3.33301 -4 -8.66602 -4 -15.999
c0 -37.333 -12.333 -109 -37 -215c-21.333 -92 -36.333 -148.333 -45 -169v-27c19.333 0 41.333 15.667 66 47l66 98c27.333 40.667 52 68.334 74 83.001v-45zM343.001 326c0 16 -7.16699 34.333 -21.5 55s-27.833 31 -40.5 31c-34.667 0 -66.334 -25.667 -95.001 -77
c-21.333 -38 -39.666 -85.667 -54.999 -143c-6 -26 -11.667 -52 -17 -78c0 -18.667 3.5 -33.667 10.5 -45s18.167 -17 33.5 -17c52.667 0 98.667 39.667 138 119c31.333 63.333 47 115 47 155zM436.001 -186c0 41.333 -7.33105 71.166 -21.998 89.499
s-22.334 28.5 -23.001 30.5c-6.66699 -7.33301 -16.834 -44 -30.501 -110s-23.5 -105.333 -29.5 -118v-59h32c28 42.667 47.167 76.334 57.5 101.001s15.5 46.667 15.5 66z" />
    <glyph glyph-name="r" unicode="r" horiz-adv-x="355" 
d="M384 219l-29.0029 -22.002c-7.33301 -4 -18.666 -6 -33.999 -6c-33.333 0 -60.666 16.333 -81.999 49l-46 78c-41.333 -68.667 -71.333 -125 -90 -169l-55 -149h-100v91c7.33301 23.333 15.5 72.5 24.5 147.5s18.833 126.5 29.5 154.5c18 47.333 45.333 71 82 71
c5.33301 0 14.333 -6.66699 27 -20s19 -21.666 19 -24.999l-37 -119v-36c29.333 22.667 65 67.334 107 134.001c27.333 44 64.333 66 111 66c14 0 23.667 -1.33301 29 -4c11.333 -5.33301 17 -16 17 -32c0 -10.667 -9 -35.334 -27 -74.001s-27 -65.667 -27 -81
c0 -20 11.333 -32.667 34 -38s38.334 -10.666 47.001 -15.999z" />
    <glyph glyph-name="s" unicode="s" horiz-adv-x="417" 
d="M417 131c-17.333 -29.333 -43.333 -56.999 -78 -82.999c-42 -32 -80.333 -48 -115 -48h-85c-29.333 0 -57.333 11.333 -84 34c-36.667 30.667 -55 73.667 -55 129c0 14.667 26 68.5 78 161.5s82.667 139.5 92 139.5c16 0 25.667 -3.33301 29 -10
c1.33301 -2.66699 2 -9.66699 2 -21v-54c0 -22 18 -52.667 54 -92s54 -78.333 54 -117l-8 -35c-6.66699 -26.667 -11.667 -45.667 -15 -57c36 4.66699 59.667 16.667 71 36c14 23.333 34 39.666 60 48.999v-32zM193 155.001v68.999c0 10.667 -5.66699 28.667 -17 54l-22 47
c-18.667 -9.33301 -33.5 -23.666 -44.5 -42.999l-32.5 -58c10 -6 17.667 -13.167 23 -21.5s8 -19.166 8 -32.499c0 -17.333 -5.16699 -33.333 -15.5 -48s-15.5 -24.334 -15.5 -29.001c0 -6 4 -12.667 12 -20s14.333 -11 19 -11c11.333 0 27 8 47 24
c25.333 20.667 38 43.667 38 69z" />
    <glyph glyph-name="t" unicode="t" horiz-adv-x="248" 
d="M280 481c-13.333 -4 -25.165 -6.66895 -35.498 -8.00195s-19.833 -2 -28.5 -2c-12.667 0.666992 -21.334 1 -26.001 1c-6.66699 0 -11.334 -0.333008 -14.001 -1c-4.66699 -1.33301 -10 -3.83301 -16 -7.5s-17.333 -44.834 -34 -123.501c-20 -93.333 -30 -175 -30 -245
c0 -11.333 2.5 -20.666 7.5 -27.999s13.167 -11 24.5 -11c10 0 24 8.33301 42 25c24.667 22.667 50.667 57 78 103h24v-48c-24.667 -42 -52.834 -75.167 -84.501 -99.5s-62.167 -36.5 -91.5 -36.5c-25.333 0 -47.666 9 -66.999 27s-29 40.667 -29 68v98
c0 24 8 73.333 24 148c5.33301 24.667 13.666 60.334 24.999 107.001c0 6 -4.33301 12 -13 18c-14.667 8.66699 -26.667 16 -36 22c1.33301 6.66699 2 11.334 2 14.001s-0.666992 8.66699 -2 18c50 0 82.333 33.333 97 100s35.667 100 63 100c12 0 21.667 -5 29 -15
s11 -23.667 11 -41c0 -13.333 -2.16699 -27.833 -6.5 -43.5s-10.166 -33.167 -17.499 -52.5v-48c14 0 27.667 -0.166992 41 -0.5s26.333 -0.5 39 -0.5c12 0 20 0.333008 24 1v-39z" />
    <glyph glyph-name="u" unicode="u" horiz-adv-x="572" 
d="M591 145c0 -25.333 -19.832 -57.498 -59.499 -96.498s-74.5 -58.5 -104.5 -58.5c-48.667 0 -78.667 21.333 -90 64c-16 59.333 -28.333 92.666 -37 99.999c-30.667 -51.333 -58 -87.666 -82 -108.999c-33.333 -30 -73 -45 -119 -45c-37.333 0 -64 16.667 -80 50
c-12.667 26 -19 60.667 -19 104l8 77c9.33301 59.333 22.333 107.666 39 144.999c23.333 52 53 78 89 78c6.66699 0 12.667 -2.16699 18 -6.5s14.333 -14.166 27 -29.499c-18.667 -18.667 -33.334 -61.334 -44.001 -128.001c-14.667 -90 -24 -141.333 -28 -154v-91h45
c66 52 115.667 114.333 149 187l55 151c16.667 41.333 42.667 62 78 62c6 0 11.5 -0.166992 16.5 -0.5s9.83301 -0.5 14.5 -0.5c5.33301 0 10.333 0.333008 15 1v-73c-17.333 -19.333 -29 -52.333 -35 -99c-8 -62.667 -14.667 -102.334 -20 -119.001v-100
c28.667 0 52.667 7.66699 72 23c22.667 18 47 52.667 73 104c12.667 -9.33301 19 -21.333 19 -36z" />
    <glyph glyph-name="v" unicode="v" horiz-adv-x="484" 
d="M508 188l-78 -48.001c-69.333 -42 -121.333 -72.333 -156 -91c-60.667 -32.667 -98.667 -49 -114 -49c-36 9.33301 -62.667 20 -80 32c-53.333 37.333 -80 95 -80 173c0 42.667 8.5 91.167 25.5 145.5s38.167 92.166 63.5 113.499h71v-44
c-2.66699 -6.66699 -9.33398 -33.5 -20.001 -80.5s-16 -76.833 -16 -89.5v-134c0 -25.333 8 -42.666 24 -51.999c11.333 -6.66699 27.333 -10 48 -10c17.333 0 35.666 6.66699 54.999 20c22.667 15.333 48.667 41.333 78 78c-26 20.667 -45.333 43 -58 67
c-14.667 28 -22 62 -22 102s6 72 18 96c15.333 31.333 39.333 47 72 47c36 0 60.667 -11 74 -33c10 -16.667 15 -44.334 15 -83.001c0 -25.333 -2.66699 -48.666 -8 -69.999s-14.666 -39.666 -27.999 -54.999v-27c11.333 -2.66699 20.833 -4.5 28.5 -5.5
s12.5 -1.5 14.5 -1.5c4.66699 0 8.33398 0.333008 11.001 1c10 2.66699 16.667 4 20 4c8 0 22 -2 42 -6zM365 214.999c-6 10 -9 17.667 -9 23c0 3.33301 0.666992 7.33301 2 12c4.66699 15.333 7 30.333 7 45c0 59.333 -12 89 -36 89c-7.33301 0 -16 -5.66699 -26 -17
c-12 -14 -18 -29.333 -18 -46c0 -31.333 7.33301 -56.333 22 -75l32 -31h26z" />
    <glyph glyph-name="w" unicode="w" horiz-adv-x="746" 
d="M774 191c-24 -20 -45.999 -35.001 -65.999 -45.001c-14.667 -7.33301 -27 -11 -37 -11c-4 0 -9.33301 1 -16 3s-11.334 3 -14.001 3c-4 0 -8.33301 -1.33301 -13 -4c-14 -24.667 -30.667 -48 -50 -70c-38.667 -44.667 -79.667 -67 -123 -67c-46 0 -80.667 17.667 -104 53
c-16.667 25.333 -30.334 65.333 -41.001 120c-20.667 -4 -46.667 -35 -78 -93c-28.667 -53.333 -72.334 -80 -131.001 -80c-24 0 -45 9.66699 -63 29c-25.333 27.333 -38 54 -38 80v110c0 55.333 12.667 112.333 38 171c21.333 49.333 48.333 74 81 74
c14.667 0 24.334 -4.5 29.001 -13.5s7 -19.5 7 -31.5l-31 -132c-9.33301 -40 -14 -78 -14 -114v-127c54 5.33301 98.667 43.333 134 114l73 195.5c24.667 66.333 52.667 99.5 84 99.5c14.667 0 24.5 -2.5 29.5 -7.5s7.5 -12.5 7.5 -22.5c-0.666992 -10.667 -1 -19 -1 -25
c0 -38 0.166992 -73.833 0.5 -107.5s0.833008 -65.167 1.5 -94.5v-18c-1.33301 -6.66699 -2 -12 -2 -16c-2 -6 -3.66699 -12.333 -5 -19c-3.33301 -14 -5 -27 -5 -39c0 -17.333 4.16699 -31.666 12.5 -42.999s22.833 -17 43.5 -17c17.333 0 38.333 14.667 63 44s37 51 37 65
c-14 16 -26.667 38.333 -38 67s-17 64 -17 106c0 43.333 6.83301 76.833 20.5 100.5s37.167 35.5 70.5 35.5c25.333 0 46 -13.667 62 -41c13.333 -22.667 20 -45.334 20 -68.001c-5.33301 -18 -9.66602 -33.333 -12.999 -46c-16.667 -57.333 -27.667 -96.666 -33 -117.999
c26 0 44.833 1 56.5 3s22.167 4.33301 31.5 7c4 0 14.333 -3.33301 31 -10zM637.001 290.999c0 13.333 -3.66602 29.335 -10.999 48.002c-4.66699 11.333 -10 22.666 -16 33.999c-21.333 -7.33301 -34.333 -13.5 -39 -18.5s-7 -14.5 -7 -28.5v-26v-25
c0 -10.667 3.83301 -20.334 11.5 -29.001s16.167 -17.667 25.5 -27c11.333 9.33301 20.166 20.833 26.499 34.5s9.5 26.167 9.5 37.5z" />
    <glyph glyph-name="x" unicode="x" horiz-adv-x="537" 
d="M537 155c-29.333 -48 -56.3311 -83.666 -80.998 -106.999c-34 -32 -71 -48 -111 -48c-23.333 0 -46 8.33301 -68 25c-28.667 21.333 -48.334 52.666 -59.001 93.999c-26 -7.33301 -52.667 -30 -80 -68c-24.667 -34 -49.667 -51 -75 -51c-20.667 0 -36.334 6 -47.001 18
s-16 27.333 -16 46c0 12.667 6 25 18 37s24 18 36 18h46c25.333 0 48.333 11.833 69 35.5s31 54.167 31 91.5c0 32.667 -5.33301 67 -16 103c-16 52.667 -38 79 -66 79c-9.33301 0 -19.166 -6.5 -29.499 -19.5s-15.5 -24.833 -15.5 -35.5v-63v-19c0 -8 -0.666992 -13 -2 -15
s-5 -3 -11 -3h-15c-20 0 -32.5 5 -37.5 15s-7.5 26 -7.5 48c0 40 13.667 71.333 41 94s62.333 34 105 34s76.667 -13.333 102 -40l52 -60c27.333 34 45.333 55 54 63c26.667 24.667 54 37 82 37c16.667 0 31.5 -5.33301 44.5 -16s19.5 -20.334 19.5 -29.001
c0 -16.667 -5.16699 -28.667 -15.5 -36s-23.166 -11 -38.499 -11c-11.333 0 -24 1.66699 -38 5c-4.66699 0.666992 -10.334 2.33398 -17.001 5.00098c-14 0 -31.167 -14.167 -51.5 -42.5s-30.5 -53.5 -30.5 -75.5c0 -20.667 9.33301 -57 28 -109c22 -60.667 43 -91 63 -91
c13.333 0 38.666 23.333 75.999 70c22 27.333 42.333 46.333 61 57v-36z" />
    <glyph glyph-name="y" unicode="y" horiz-adv-x="545" 
d="M582 192c-11.333 -47.333 -40.6641 -94.3359 -87.9971 -141.003l-158 -130c-2.66699 -5.33301 -7 -32.666 -13 -81.999c-0.666992 -8 -2 -19 -4 -33c-24.667 -60 -43.667 -100.667 -57 -122c-35.333 -56.667 -74 -85 -116 -85c-24.667 0 -41.834 8.33301 -51.501 25
s-14.5 38 -14.5 64c0 45.333 18.667 89 56 131l129 102c5.33301 30 9.33301 53.333 12 70c9.33301 48.667 17 82.334 23 101.001v26c-14 -9.33301 -49.667 -38 -107 -86c-25.333 -21.333 -53.666 -32 -84.999 -32c-28.667 0 -53.834 10.167 -75.501 30.5
s-32.5 43.5 -32.5 69.5v101c8.66699 58.667 17 102.334 25 131.001c24 88 54.667 132 92 132c14.667 0 27.5 -3 38.5 -9s16.5 -15 16.5 -27c-16 -52 -28 -92.667 -36 -122c-24 -89.333 -36 -155 -36 -197c0 -22.667 2.66699 -39 8 -49s17.333 -15 36 -15
c49.333 0 92.666 40.333 129.999 121l107 290h93v-46c-28 -82.667 -51 -153.667 -69 -213c-0.666992 -2 -13 -43.667 -37 -125c-10.667 -36.667 -19.334 -63 -26.001 -79v-25c23.333 8 58.5 38.5 105.5 91.5s79.5 97.167 97.5 132.5h37zM244.002 -116.003
c-39.333 -10 -71.667 -41.667 -97 -95c-20 -42 -30 -77.667 -30 -107c0 -14 2.5 -25.333 7.5 -34s9.83301 -13 14.5 -13c34 0 61.667 41.333 83 124c6.66699 27.333 14 69 22 125z" />
    <glyph glyph-name="z" unicode="z" horiz-adv-x="414" 
d="M414 48l-71.0049 -57.9971c-40.667 -33.333 -61 -52.333 -61 -57c2.66699 -2.66699 4.33398 -5 5.00098 -7c4 -7.33301 6 -15.333 6 -24v-44c0 -38.667 -22 -86.334 -66 -143.001c-47.333 -60.667 -91.666 -91 -132.999 -91c-18 0 -33.167 7 -45.5 21
s-18.5 29.667 -18.5 47c0 37.333 19.667 77.666 59 120.999l129 120c0 12 -3.33301 31.5 -10 58.5s-14 40.5 -22 40.5c-4.66699 0 -15.167 -5.16699 -31.5 -15.5s-33.166 -15.5 -50.499 -15.5h-13c-12 0 -18 6.33301 -18 19c0 22 16.333 36 49 42
c44.667 8.66699 79.334 26.667 104.001 54c15.333 15.333 31.333 36.666 48 63.999c24.667 40.667 37 76.334 37 107.001v61c0 21.333 -8.66699 40.333 -26 57c-19.333 18.667 -44 28 -74 28c-44 0 -82.333 -20.667 -115 -62c-27.333 -34.667 -41 -67.334 -41 -98.001
c0 -17.333 6 -32.333 18 -45s26.667 -19 44 -19c26 0 46.667 13.667 62 41l27 62h15v-36l-40 -82c-21.333 -32 -50.666 -48 -87.999 -48c-24.667 0 -46.334 7.66699 -65.001 23s-28 35.333 -28 60c0 69.333 31 128 93 176c50.667 39.333 98.667 59 144 59
c46.667 0 85.334 -12.333 116.001 -37c34 -27.333 51 -63.666 51 -108.999c0 -46 -15.333 -89.333 -46 -130l-121 -118l69 -50c16.667 8 29.334 14.333 38.001 19c25.333 13.333 43.666 23.666 54.999 30.999h15v-22zM217.995 -123.997c1.33301 4.66699 1.33301 10.333 0 17
c-48 -42 -85.5 -82.833 -112.5 -122.5s-40.5 -70.5 -40.5 -92.5c0 -6.66699 2.66699 -13.5 8 -20.5s12.333 -10.5 21 -10.5c28.667 0 56.5 26 83.5 78s40.5 102.333 40.5 151z" />
    <glyph glyph-name="braceleft" unicode="{" 
 />
    <glyph glyph-name="bar" unicode="|" 
 />
    <glyph glyph-name="braceright" unicode="}" 
 />
    <glyph glyph-name="asciitilde" unicode="~" 
 />
    <glyph glyph-name="nonbreakingspace" unicode="&#xa0;" 
 />
    <glyph glyph-name="cedilla" unicode="&#xb8;" horiz-adv-x="1000" 
d="M1000 328c-58 -99.333 -119.998 -176.002 -185.998 -230.002c-80 -65.333 -165 -98 -255 -98c-47.333 0 -87.333 6.66699 -120 20c-45.333 18.667 -84.333 31 -117 37c-74.667 14 -182 21 -322 21v94c95.333 119.333 187.666 216.666 276.999 291.999
c34 28.667 98.667 75.334 194 140.001c62.667 42.667 110.667 85.334 144 128.001c-70 15.333 -133 33 -189 53l-115 45c-32 12 -58.333 18 -79 18c-21.333 0 -39.5 -4.5 -54.5 -13.5s-22.5 -23.833 -22.5 -44.5v-117c0 -4 1 -11.667 3 -23s3 -20 3 -26
c0 -14 -4.66699 -25.167 -14 -33.5s-26.333 -12.5 -51 -12.5c-20 0 -41 13 -63 39s-33 51.333 -33 76c0 87.333 37.5 160.333 112.5 219s172.833 88 293.5 88c67.333 0 131.666 -12.833 192.999 -38.5s118.666 -38.5 171.999 -38.5c30.667 0 56.667 5.5 78 16.5
s33 16.5 35 16.5c8 0 17.667 -5 29 -15s27.666 -28 48.999 -54c-129.333 -142.667 -245.666 -255.334 -348.999 -338.001c-30.667 -24.667 -90.667 -66.667 -180 -126c-41.333 -27.333 -70 -59 -86 -95c5.33301 -3.33301 34 -14.666 86 -33.999s104 -36.666 156 -51.999
c62.667 -18.667 103.667 -28 123 -28c46 0 89.333 21.667 130 65c66.667 70 119.334 118 158.001 144v-95z" />
    <glyph glyph-name=".null" unicode="&#xd7;" horiz-adv-x="0" 
 />
    <glyph glyph-name=".null" unicode="&#x141;" horiz-adv-x="0" 
 />
    <glyph glyph-name=".null" unicode="&#xfd;" horiz-adv-x="0" 
 />
    <glyph glyph-name="germandbls" unicode="&#xdf;" horiz-adv-x="417" 
d="M190 662c0 -30 -7.99902 -59.334 -23.999 -88.001c-2.66699 -5.33301 -37.667 -49.333 -105 -132h-38v22c32 26.667 55.333 51.167 70 73.5s22 43.5 22 63.5c0 10.667 -10.333 26 -31 46s-31 40.667 -31 62c0 22.667 6.16699 38.334 18.5 47.001s29.166 13 50.499 13
c20.667 0 37.167 -9.83301 49.5 -29.5s18.5 -45.5 18.5 -77.5zM419.001 151.999c-13.333 -50 -45.334 -89.666 -96.001 -118.999c-38 -22 -72 -33 -102 -33h-69c-43.333 0 -79.5 17 -108.5 51s-43.5 70.333 -43.5 109c0 10 15 40.667 45 92c21.333 37.333 50.333 84 87 140
c31.333 48 48 72 50 72l15 -15c10.667 -11.333 16 -19 16 -23c-6.66699 -7.33301 -11.667 -13 -15 -17c-10.667 -14.667 -16 -27 -16 -37c34 -33.333 63.667 -68.333 89 -105c28 -40 42 -75.667 42 -107c0 -14.667 -1.16699 -25.334 -3.5 -32.001
s-4.16602 -12.334 -5.49902 -17.001c0 -5.33301 3 -14.333 9 -27c2.66699 0.666992 19.667 14.334 51 41.001c14.667 12.667 33 21.667 55 27zM198 182c0 21.333 -4.16797 43.1699 -12.501 65.5029s-19.5 44.166 -33.5 65.499c-25.333 -17.333 -44.333 -37 -57 -59
c-4 -6.66699 -7.66699 -15.334 -11 -26.001c0 -5.33301 5.16699 -13.833 15.5 -25.5s15.5 -23.5 15.5 -35.5c0 -14 -6.33301 -30.667 -19 -50c-4 -6.66699 -10.667 -15.334 -20 -26.001c2.66699 -6.66699 5.33398 -11.667 8.00098 -15c8 -10 18.333 -15 31 -15
c25.333 0 46 14.333 62 43c14 24.667 21 50.667 21 78z" />
    <glyph glyph-name="Omega" unicode="&#x3a9;" horiz-adv-x="464" 
d="M464 152c-26.667 -44.667 -55.6699 -79.999 -87.0029 -105.999c-37.333 -30.667 -76.666 -46 -117.999 -46c-22.667 0 -42.667 3.66699 -60 11c-40 16.667 -106.333 25 -199 25v44c48.667 61.333 96.334 110.333 143.001 147l142 112c-35.333 8 -67.333 17.333 -96 28
c-46.667 17.333 -74 26 -82 26c-8.66699 0 -14.667 -0.666992 -18 -2c-11.333 -4 -17 -12.333 -17 -25v-54c2 -10 3 -17.667 3 -23c0 -6.66699 -2 -11.834 -6 -15.501s-12 -5.5 -24 -5.5c-8.66699 0 -18.334 6 -29.001 18s-16 23.667 -16 35c0 40.667 17.333 74.667 52 102
s80 41 136 41c30.667 0 60.334 -6 89.001 -18s55.334 -18 80.001 -18c14.667 0 28 3.33301 40 10c6 3.33301 10.333 5 13 5c3.33301 0 7.5 -2.16699 12.5 -6.5s12.833 -12.833 23.5 -25.5c-59.333 -66 -113 -118 -161 -156c-10 -8 -38 -27.333 -84 -58
c-18.667 -12.667 -32 -27.667 -40 -45c8.66699 -6.66699 42.667 -19 102 -37c34.667 -10.667 57 -16 67 -16c20.667 0 40.667 10 60 30c31.333 32.667 56 55 74 67v-44z" />
    <glyph glyph-name="quoteleft" unicode="&#x2018;" horiz-adv-x="168" 
d="M138 931c-5.33301 -20.667 -20.6689 -38 -46.002 -52s-39.166 -25.5 -41.499 -34.5s-3.5 -17.5 -3.5 -25.5c0 -23.333 7.33301 -49.333 22 -78c6.66699 -13.333 18.334 -31.333 35.001 -54l-6 -22l-36 10l-49.5 105c-16.333 35.333 -24.5 67.333 -24.5 96c0 14 2 29 6 45
c6.66699 26.667 17.167 48 31.5 64s30.166 24 47.499 24c2.66699 0 7.33398 -0.666992 14.001 -2c36 -9.33301 54 -27.333 54 -54c0 -6.66699 -1 -14 -3 -22z" />
    <glyph glyph-name="quoteright" unicode="&#x2019;" horiz-adv-x="176" 
d="M160 921c4 -16 5.99609 -31.333 5.99609 -46c0 -32 -11.667 -72 -35 -120l-39 -80l-36 -10l-6 22c14.667 20 26.334 38.333 35.001 55c14.667 28.667 22 54.667 22 78c0 7.33301 -1.16699 15.5 -3.5 24.5s-16.166 20.5 -41.499 34.5s-40.666 31.333 -45.999 52
c-2 8 -3 15.667 -3 23c0 14.667 4.5 26 13.5 34s22.5 14.333 40.5 19c6.66699 1.33301 11.334 2 14.001 2c17.333 0 33 -8 47 -24s24.667 -37.333 32 -64z" />
    <glyph glyph-name="quotedblleft" unicode="&#x201c;" horiz-adv-x="328" 
d="M322 931c-5.33301 -20.667 -20.6689 -38 -46.002 -52s-39.166 -25.5 -41.499 -34.5s-3.5 -17.5 -3.5 -25.5c0 -23.333 7.33301 -49.333 22 -78c6.66699 -13.333 18.334 -31.333 35.001 -54l-6 -22l-36 10l-49.5 105c-16.333 35.333 -24.5 67.333 -24.5 96c0 14 2 29 6 45
c6.66699 26.667 17.167 48 31.5 64s30.166 24 47.499 24c2.66699 0 7.33398 -0.666992 14.001 -2c36 -9.33301 54 -27.333 54 -54c0 -6.66699 -1 -14 -3 -22zM137.997 931c-5.33301 -20.667 -20.6689 -38 -46.002 -52s-39.166 -25.5 -41.499 -34.5s-3.5 -17.5 -3.5 -25.5
c0 -23.333 7.33301 -49.333 22 -78c6.66699 -13.333 18.334 -31.333 35.001 -54l-6 -22l-36 10l-49.5 105c-16.333 35.333 -24.5 67.333 -24.5 96c0 14 2 29 6 45c6.66699 26.667 17.167 48 31.5 64s30.166 24 47.499 24c2.66699 0 7.33398 -0.666992 14.001 -2
c36 -9.33301 54 -27.333 54 -54c0 -6.66699 -1 -14 -3 -22z" />
    <glyph glyph-name="quotedblright" unicode="&#x201d;" horiz-adv-x="372" 
d="M160 921c4 -16 5.99609 -31.333 5.99609 -46c0 -32 -11.667 -72 -35 -120l-39 -80l-36 -10l-6 22c14.667 20 26.334 38.333 35.001 55c14.667 28.667 22 54.667 22 78c0 7.33301 -1.16699 15.5 -3.5 24.5s-16.166 20.5 -41.499 34.5s-40.666 31.333 -45.999 52
c-2 8 -3 15.667 -3 23c0 14.667 4.5 26 13.5 34s22.5 14.333 40.5 19c6.66699 1.33301 11.334 2 14.001 2c17.333 0 33 -8 47 -24s24.667 -37.333 32 -64zM343.996 921c4 -16 5.99609 -31.333 5.99609 -46c0 -32 -11.667 -72 -35 -120l-39 -80l-36 -10l-6 22
c14.667 20 26.334 38.333 35.001 55c14.667 28.667 22 54.667 22 78c0 7.33301 -1.16699 15.5 -3.5 24.5s-16.166 20.5 -41.499 34.5s-40.666 31.333 -45.999 52c-2 8 -3 15.667 -3 23c0 14.667 4.5 26 13.5 34s22.5 14.333 40.5 19c6.66699 1.33301 11.334 2 14.001 2
c17.333 0 33 -8 47 -24s24.667 -37.333 32 -64z" />
    <glyph glyph-name="nonmarkingreturn" 
 />
  </font>
</defs>
</svg>
